<svg xmlns="http://www.w3.org/2000/svg" width="26.951" height="26.965" viewBox="0 0 26.951 26.965">
  <g id="Group_7726" data-name="Group 7726" transform="translate(0.5 0.513)">
    <g id="Group_7674" data-name="Group 7674">
      <g id="Group_7673" data-name="Group 7673">
        <g id="Group_7669" data-name="Group 7669">
          <g id="Group_7667" data-name="Group 7667">
            <path id="Path_6175" data-name="Path 6175" d="M31.691,19.271a6.223,6.223,0,0,1-1.7,4.265,4.153,4.153,0,0,1-.355.35,4.582,4.582,0,0,1-2.409,1.151l-.558.079-.716-.1a4.614,4.614,0,0,1-2.426-1.151c-.1-.09-.2-.181-.293-.282a6.242,6.242,0,0,1-1.7-4.338l.288-4.806L24.3,12.3l5.314-.807a16.353,16.353,0,0,0,2.076,1.484C32.594,13.477,31.691,19.271,31.691,19.271Z" transform="translate(-13.639 -9.622)" fill="#f4d2b1"/>
            <path id="Path_6177" data-name="Path 6177" d="M30.969,18.015v-3.96a.713.713,0,0,0-1.055-.694c-2.911,1.783-6.1-.716-6.1-.716C21.718,12.374,20.8,18,20.8,18l-.942-3.588c-.75-2.736,1.3-5.382,3.706-4.53l.045.017a5.925,5.925,0,0,1,6.115-1.111,4.005,4.005,0,0,1,2.73,3.859A6.866,6.866,0,0,1,30.969,18.015Z" transform="translate(-12.906 -8.372)" fill="#544f55"/>
            <path id="Path_6179" data-name="Path 6179" d="M34.325,45.607H8.375c0-2.49,1.51-4.748,3.037-6.381a8.15,8.15,0,0,1,5.965-2.645h.6a2.86,2.86,0,0,0,2.675,2.261h1.323a2.617,2.617,0,0,0,2.767-2.261h.579A9.223,9.223,0,0,1,34.325,45.607Z" transform="translate(-8.375 -19.655)" fill="#e3334f"/>
            <path id="Path_6181" data-name="Path 6181" d="M31.125,31.561v2.572a3.156,3.156,0,0,1-.4,1.563,1.439,1.439,0,0,1-.113.147s-.068.079-.135.152a2.872,2.872,0,0,1-.666.519,4.256,4.256,0,0,1-.79.282,3.381,3.381,0,0,1-.395.045l-.874-.017c-.327-.006-.643-.006-.959-.006a2.882,2.882,0,0,1-.542-.124,2.333,2.333,0,0,1-.654-.327c-.056-.045-.085-.056-.141-.1a1.03,1.03,0,0,1-.09-.073,1.661,1.661,0,0,1-.147-.135c-.051-.051-.135-.141-.181-.192-.034-.034-.231-.316-.26-.355s0-.034-.034-.085-.056-.1-.085-.141a2.4,2.4,0,0,1-.293-1.151V31.612c.1.1.192.192.293.282a4.614,4.614,0,0,0,2.426,1.151l.716.1.558-.079a4.582,4.582,0,0,0,2.409-1.151A4.153,4.153,0,0,0,31.125,31.561Z" transform="translate(-14.771 -17.647)" fill="#d8ac8b"/>
          </g>
        </g>
        <g id="Group_7670" data-name="Group 7670">
          <g id="Group_7667-2" data-name="Group 7667">
            <path id="Path_6175-2" data-name="Path 6175" d="M31.691,19.271a6.223,6.223,0,0,1-1.7,4.265,4.153,4.153,0,0,1-.355.35,4.582,4.582,0,0,1-2.409,1.151l-.558.079-.716-.1a4.614,4.614,0,0,1-2.426-1.151c-.1-.09-.2-.181-.293-.282a6.242,6.242,0,0,1-1.7-4.338l.288-4.806L24.3,12.3l5.314-.807a16.353,16.353,0,0,0,2.076,1.484C32.594,13.477,31.691,19.271,31.691,19.271Z" transform="translate(-13.639 -9.622)" fill="#f4d2b1" stroke="#414141" stroke-width="1"/>
            <path id="Path_6177-2" data-name="Path 6177" d="M30.969,18.015v-3.96a.713.713,0,0,0-1.055-.694c-2.911,1.783-6.1-.716-6.1-.716C21.718,12.374,20.8,18,20.8,18l-.942-3.588c-.75-2.736,1.3-5.382,3.706-4.53l.045.017a5.925,5.925,0,0,1,6.115-1.111,4.005,4.005,0,0,1,2.73,3.859A6.866,6.866,0,0,1,30.969,18.015Z" transform="translate(-12.906 -8.372)" fill="#544f55" stroke="#414141" stroke-width="1"/>
            <path id="Path_6179-2" data-name="Path 6179" d="M34.325,45.607H8.375c0-2.49,1.51-4.748,3.037-6.381a8.15,8.15,0,0,1,5.965-2.645h.6a2.86,2.86,0,0,0,2.675,2.261h1.323a2.617,2.617,0,0,0,2.767-2.261h.579A9.223,9.223,0,0,1,34.325,45.607Z" transform="translate(-8.375 -19.655)" fill="#9ae1f5" stroke="#414141" stroke-width="1"/>
            <path id="Path_6181-2" data-name="Path 6181" d="M31.125,31.561v2.572a3.156,3.156,0,0,1-.4,1.563,1.439,1.439,0,0,1-.113.147s-.068.079-.135.152a2.872,2.872,0,0,1-.666.519,4.256,4.256,0,0,1-.79.282,3.381,3.381,0,0,1-.395.045l-.874-.017c-.327-.006-.643-.006-.959-.006a2.882,2.882,0,0,1-.542-.124,2.333,2.333,0,0,1-.654-.327c-.056-.045-.085-.056-.141-.1a1.03,1.03,0,0,1-.09-.073,1.661,1.661,0,0,1-.147-.135c-.051-.051-.135-.141-.181-.192-.034-.034-.231-.316-.26-.355s0-.034-.034-.085-.056-.1-.085-.141a2.4,2.4,0,0,1-.293-1.151V31.612c.1.1.192.192.293.282a4.614,4.614,0,0,0,2.426,1.151l.716.1.558-.079a4.582,4.582,0,0,0,2.409-1.151A4.153,4.153,0,0,0,31.125,31.561Z" transform="translate(-14.771 -17.647)" fill="#d8ac8b" stroke="#414141" stroke-width="1"/>
          </g>
        </g>
      </g>
    </g>
  </g>
</svg>
