<svg xmlns="http://www.w3.org/2000/svg" width="41" height="17.446" viewBox="0 0 41 17.446">
  <g id="Group_7729" data-name="Group 7729" transform="translate(0.5 0.5)">
    <g id="Group_7686" data-name="Group 7686" transform="translate(0 0)">
      <g id="Cigar" transform="translate(0 0)">
        <g id="Group_7684" data-name="Group 7684" transform="translate(0 9.869)">
          <g id="Group_7683" data-name="Group 7683">
            <rect id="Rectangle_3724" data-name="Rectangle 3724" width="31.44" height="5.87" transform="translate(4.777 0.13)" fill="#e3e5e7" stroke="#707070" stroke-linecap="round" stroke-linejoin="round" stroke-width="1"/>
            <g id="Group_7682" data-name="Group 7682">
              <path id="Path_6189" data-name="Path 6189" d="M40.2,27.67c0-1.565.522-2.87,1.044-2.87H54.55v5.87H41.244C40.722,30.67,40.2,29.366,40.2,27.67Z" transform="translate(-40.2 -24.67)" fill="#fabb3a" stroke="#707070" stroke-linecap="round" stroke-linejoin="round" stroke-width="1"/>
              <g id="Group_7681" data-name="Group 7681" transform="translate(1.116)">
                <path id="Path_6190" data-name="Path 6190" d="M45.1,27.022h0a1.3,1.3,0,0,0,.13-.522,1.314,1.314,0,0,1,.13.391C45.361,27.283,45.1,26.891,45.1,27.022Z" transform="translate(-38.519 -24.152)" fill="#fde4b0" stroke="#707070" stroke-linecap="round" stroke-linejoin="round" stroke-width="1"/>
                <path id="Path_6191" data-name="Path 6191" d="M47.6,25.5Z" transform="translate(-44.02 -24.456)" fill="#fde4b0" stroke="#707070" stroke-linecap="round" stroke-width="1"/>
                <path id="Path_6192" data-name="Path 6192" d="M44.7,26h0v-.13c0-.13.13-.391.261-.261V26c0,.13,0,.261-.13.261C44.7,26.391,44.7,26.261,44.7,26Z" transform="translate(-37.597 -24.434)" fill="#fde4b0" stroke="#707070" stroke-linecap="round" stroke-linejoin="round" stroke-width="1"/>
                <path id="Path_6193" data-name="Path 6193" d="M49.056,27.03V26.9s.13,0,0,.13Z" transform="translate(-47.432 -24.03)" fill="#fde4b0" stroke="#707070" stroke-linecap="round" stroke-width="1"/>
                <path id="Path_6194" data-name="Path 6194" d="M47.561,25.934s.13,0,.13-.261c.13-.13.13,0,.13.13V26.2c-.13.13-.13.13-.261,0,.13-.261,0-.13,0-.261h0c-.13.261-.261,0-.261-.13,0,0,0,.13.13-.13v-.13c.13-.13.261-.261.261-.13V25.8A.128.128,0,0,0,47.561,25.934Zm-.13-.261Z" transform="translate(-43.85 -24.499)" fill="#fde4b0" stroke="#707070" stroke-linecap="round" stroke-linejoin="round" stroke-width="1"/>
                <path id="Path_6195" data-name="Path 6195" d="M42.43,25.93l-.13-.13h0Z" transform="translate(-31.936 -24.365)" fill="#fde4b0" stroke="#707070" stroke-linecap="round" stroke-linejoin="round" stroke-width="1"/>
                <path id="Path_6196" data-name="Path 6196" d="M47.13,25.413h0c-.13.261-.13.13-.13.13C47,25.413,47,25.282,47.13,25.413Z" transform="translate(-42.767 -24.499)" fill="#fde4b0" stroke="#707070" stroke-linecap="round" stroke-width="1"/>
                <path id="Path_6197" data-name="Path 6197" d="M43.83,26.8h0Z" transform="translate(-35.162 -24.06)" fill="#fde4b0" stroke="#707070" stroke-linecap="round" stroke-linejoin="round" stroke-width="1"/>
                <path id="Path_6198" data-name="Path 6198" d="M42.5,26.13h0v-.522h0v.522Z" transform="translate(-32.266 -24.434)" fill="#fde4b0" stroke="#707070" stroke-linecap="round" stroke-linejoin="round" stroke-width="1"/>
                <path id="Path_6199" data-name="Path 6199" d="M44.3,25.986c0-.261.13-.522.13-.261v.261C44.43,26.117,44.43,25.986,44.3,25.986Z" transform="translate(-36.545 -24.421)" fill="#fde4b0" stroke="#707070" stroke-linecap="round" stroke-linejoin="round" stroke-width="1"/>
                <path id="Path_6200" data-name="Path 6200" d="M45.1,26.443h0v0h0v0Z" transform="translate(-38.258 -24.225)" fill="#fde4b0" stroke="#707070" stroke-linecap="round" stroke-width="1"/>
                <path id="Path_6201" data-name="Path 6201" d="M47.9,25.9v0Z" transform="translate(-44.711 -24.335)" fill="#fde4b0" stroke="#707070" stroke-linecap="round" stroke-linejoin="round" stroke-width="1"/>
                <path id="Path_6202" data-name="Path 6202" d="M47.9,26.461h0c.13-.13.13-.261.261-.261v.261C48.03,26.722,48.03,26.461,47.9,26.461Z" transform="translate(-44.972 -24.243)" fill="#fde4b0" stroke="#707070" stroke-linecap="round" stroke-width="1"/>
                <path id="Path_6203" data-name="Path 6203" d="M47.6,26.591h0v-.13c.13-.13.13-.261.261-.261v.261c0,.13,0,.13-.13.261C47.73,26.983,47.6,26.852,47.6,26.591Zm.13,0Z" transform="translate(-44.281 -24.243)" fill="#fde4b0" stroke="#707070" stroke-linecap="round" stroke-width="1"/>
                <path id="Path_6204" data-name="Path 6204" d="M50.03,26.074h0c0-.13.13-.13.13-.261h0c.13-.13.13.13.13,0V26.2c-.13.261-.261.13-.391.261,0-.13.13-.13.13-.391Z" transform="translate(-49.712 -24.379)" fill="#fde4b0" stroke="#707070" stroke-linecap="round" stroke-linejoin="round" stroke-width="1"/>
                <path id="Path_6205" data-name="Path 6205" d="M48.661,25.861c-.13.261-.261.261-.261,0l.13-.261C48.53,25.73,48.661,25.47,48.661,25.861Z" transform="translate(-46.124 -24.426)" fill="#fde4b0" stroke="#707070" stroke-linecap="round" stroke-linejoin="round" stroke-width="1"/>
                <path id="Path_6206" data-name="Path 6206" d="M47.8,26.414Z" transform="translate(-44.481 -24.196)" fill="#fde4b0" stroke="#707070" stroke-linecap="round" stroke-width="1"/>
                <path id="Path_6207" data-name="Path 6207" d="M43.03,26.669c-.13.261-.13.13-.13.13.13-.261.13-.522.261-.391Z" transform="translate(-33.449 -24.19)" fill="#fde4b0" stroke="#707070" stroke-linecap="round" stroke-width="1"/>
                <path id="Path_6208" data-name="Path 6208" d="M48.1,26.13v0Z" transform="translate(-45.172 -24.304)" fill="#fde4b0" stroke="#707070" stroke-linecap="round" stroke-linejoin="round" stroke-width="1"/>
                <path id="Path_6209" data-name="Path 6209" d="M45.53,26.361c-.13.261-.13.13,0,0-.13.13-.13,0,0,0h0L45.4,26.1h0C45.53,26.23,45.53,26.23,45.53,26.361Z" transform="translate(-39.08 -24.274)" fill="#fde4b0" stroke="#707070" stroke-linecap="round" stroke-linejoin="round" stroke-width="1"/>
                <path id="Path_6210" data-name="Path 6210" d="M43.53,26.369c0,.261-.13.13-.13.13,0-.261.13-.522.13-.391Z" transform="translate(-34.471 -24.282)" fill="#fde4b0" stroke="#707070" stroke-linecap="round" stroke-linejoin="round" stroke-width="1"/>
                <path id="Path_6211" data-name="Path 6211" d="M44.6,26.2Z" transform="translate(-37.106 -24.243)" fill="#fde4b0" stroke="#707070" stroke-linecap="round" stroke-linejoin="round" stroke-width="1"/>
                <path id="Path_6212" data-name="Path 6212" d="M48,26.93h0v0Z" transform="translate(-44.942 -24.06)" fill="#fde4b0" stroke="#707070" stroke-linecap="round" stroke-linejoin="round" stroke-width="1"/>
                <path id="Path_6213" data-name="Path 6213" d="M48.1,24.9Z" transform="translate(-45.172 -24.639)" fill="#fde4b0" stroke="#707070" stroke-linecap="round" stroke-width="1"/>
                <path id="Path_6214" data-name="Path 6214" d="M44.1,24.8h.261v.13c0-.391-.13.261-.13,0a.128.128,0,0,1-.13-.13Z" transform="translate(-36.215 -24.67)" fill="#fde4b0" stroke="#707070" stroke-linecap="round" stroke-linejoin="round" stroke-width="1"/>
                <path id="Path_6215" data-name="Path 6215" d="M48.161,24.8v.391c-.13.13-.13,0-.261-.13v-.13h0C48.03,24.93,48.03,24.8,48.161,24.8Zm-.13.261Z" transform="translate(-44.972 -24.67)" fill="#fde4b0" stroke="#707070" stroke-linecap="round" stroke-width="1"/>
                <path id="Path_6216" data-name="Path 6216" d="M41.7,25.5Z" transform="translate(-30.423 -24.456)" fill="#fde4b0" stroke="#707070" stroke-linecap="round" stroke-width="1"/>
                <path id="Path_6217" data-name="Path 6217" d="M41.53,25.169h0v-.261c-.13,0-.13,0,0,.261h0c-.13.13-.13-.13-.13-.13s0-.261.13-.13Z" transform="translate(-29.862 -24.648)" fill="#fde4b0" stroke="#707070" stroke-linecap="round" stroke-linejoin="round" stroke-width="1"/>
                <path id="Path_6218" data-name="Path 6218" d="M44.4,24.914Z" transform="translate(-36.645 -24.653)" fill="#fde4b0" stroke="#707070" stroke-linecap="round" stroke-width="1"/>
                <path id="Path_6219" data-name="Path 6219" d="M41.73,25.552v-.13h0v-.261h0v-.13h0V24.9h.13v1.3s-.13.261-.13,0a.128.128,0,0,0-.13-.13h0c.13-.391.13-.391.13-.522Z" transform="translate(-30.453 -24.639)" fill="#fde4b0" stroke="#707070" stroke-linecap="round" stroke-linejoin="round" stroke-width="1"/>
                <path id="Path_6220" data-name="Path 6220" d="M41.63,28.714v.261c-.13.13-.13,0-.13-.13h.13v-.13h0c-.13-.13-.13,0,0,0v0Z" transform="translate(-30.092 -23.495)" fill="#fde4b0" stroke="#707070" stroke-linecap="round" stroke-linejoin="round" stroke-width="1"/>
                <path id="Path_6221" data-name="Path 6221" d="M47.991,25.061c0,.13-.13.261-.261,0,0-.261,0-.13-.13-.261h.261A.4.4,0,0,1,47.991,25.061Z" transform="translate(-44.411 -24.67)" fill="#fde4b0" stroke="#707070" stroke-linecap="round" stroke-linejoin="round" stroke-width="1"/>
                <path id="Path_6222" data-name="Path 6222" d="M50.314,25.414h0c.13.261,0,.261,0,.261h0v-.261Z" transform="translate(-50.256 -24.5)" fill="#fde4b0" stroke="#707070" stroke-linecap="round" stroke-linejoin="round" stroke-width="1"/>
                <path id="Path_6223" data-name="Path 6223" d="M49.1,26.661c0-.13,0-.261.13-.261,0,.13,0,.13-.13.261Z" transform="translate(-47.607 -24.182)" fill="#fde4b0" stroke="#707070" stroke-linecap="round" stroke-width="1"/>
                <path id="Path_6224" data-name="Path 6224" d="M40.43,28v.261c0,.13-.13,0-.13,0h.13V28h0v0Z" transform="translate(-27.327 -23.695)" fill="#fde4b0" stroke="#707070" stroke-linecap="round" stroke-linejoin="round" stroke-width="1"/>
                <path id="Path_6225" data-name="Path 6225" d="M44.356,29.183h0v-.13h0v-.13c.13-.13.13-.522.261-.522a.128.128,0,0,0,.13.13h0a.63.63,0,0,1,0,.522C44.486,29.7,44.486,29.052,44.356,29.183Z" transform="translate(-36.992 -23.573)" fill="#fde4b0" stroke="#707070" stroke-linecap="round" stroke-linejoin="round" stroke-width="1"/>
                <path id="Path_6226" data-name="Path 6226" d="M48.2,25.4v0Z" transform="translate(-45.402 -24.487)" fill="#fde4b0" stroke="#707070" stroke-linecap="round" stroke-linejoin="round" stroke-width="1"/>
                <path id="Path_6227" data-name="Path 6227" d="M48.161,25.3v.522c0,.261-.13.13-.261-.13v-.13h0C48.03,25.43,48.03,25.3,48.161,25.3Zm-.13.391Z" transform="translate(-44.972 -24.517)" fill="#fde4b0" stroke="#707070" stroke-linecap="round" stroke-width="1"/>
                <path id="Path_6228" data-name="Path 6228" d="M48,25.5Z" transform="translate(-44.942 -24.456)" fill="#fde4b0" stroke="#707070" stroke-linecap="round" stroke-width="1"/>
                <path id="Path_6229" data-name="Path 6229" d="M49.6,26.2h0v.13C49.467,26.33,49.467,26.33,49.6,26.2Z" transform="translate(-48.496 -24.243)" fill="#fde4b0" stroke="#707070" stroke-linecap="round" stroke-width="1"/>
                <path id="Path_6230" data-name="Path 6230" d="M42.33,26.6h0v-.261h0a1.176,1.176,0,0,0-.13-.652v0h0V25.3c0,.13,0,.261.13.13l.13.13V26.6a.4.4,0,0,1-.13.261C42.461,26.865,42.461,26.865,42.33,26.6Z" transform="translate(-31.836 -24.517)" fill="#fde4b0" stroke="#707070" stroke-linecap="round" stroke-linejoin="round" stroke-width="1"/>
                <path id="Path_6231" data-name="Path 6231" d="M48.564,26.491h0v.261c0,.391-.13.261-.261.13v-.261c-.13,0-.13-.13-.13-.261l.13-.261C48.434,26.23,48.695,25.97,48.564,26.491Z" transform="translate(-45.767 -24.274)" fill="#fde4b0" stroke="#707070" stroke-linecap="round" stroke-linejoin="round" stroke-width="1"/>
                <path id="Path_6232" data-name="Path 6232" d="M41.7,26.261h0v-.13h0V26h0v.261l.13-.13V26l-.13.261Z" transform="translate(-30.553 -24.304)" fill="#fde4b0" stroke="#707070" stroke-linecap="round" stroke-linejoin="round" stroke-width="1"/>
                <path id="Path_6233" data-name="Path 6233" d="M42.2,25v0Z" transform="translate(-31.575 -24.609)" fill="#fde4b0" stroke="#707070" stroke-linecap="round" stroke-linejoin="round" stroke-width="1"/>
                <path id="Path_6234" data-name="Path 6234" d="M41.9,25.061h0V24.8h.13v.261c0,.391-.13.13-.13.13Z" transform="translate(-31.014 -24.67)" fill="#fde4b0" stroke="#707070" stroke-linecap="round" stroke-linejoin="round" stroke-width="1"/>
                <path id="Path_6235" data-name="Path 6235" d="M47,25.222c.13-.261,0-.13,0-.261s.13,0,.13-.261h.13v.13a.479.479,0,0,1-.13.391C47.13,25.483,47,25.483,47,25.222Z" transform="translate(-42.898 -24.7)" fill="#fde4b0" stroke="#707070" stroke-linecap="round" stroke-linejoin="round" stroke-width="1"/>
                <path id="Path_6236" data-name="Path 6236" d="M44.6,25h0v0Z" transform="translate(-37.106 -24.609)" fill="#fde4b0" stroke="#707070" stroke-linecap="round" stroke-linejoin="round" stroke-width="1"/>
                <path id="Path_6237" data-name="Path 6237" d="M43.1,24.8Z" transform="translate(-33.649 -24.67)" fill="#fde4b0" stroke="#707070" stroke-linecap="round" stroke-width="1"/>
                <path id="Path_6238" data-name="Path 6238" d="M47.3,25.6Z" transform="translate(-43.328 -24.426)" fill="#fde4b0" stroke="#707070" stroke-linecap="round" stroke-linejoin="round" stroke-width="1"/>
                <path id="Path_6239" data-name="Path 6239" d="M42.3,28.1Z" transform="translate(-31.806 -23.665)" fill="#fde4b0" stroke="#707070" stroke-linecap="round" stroke-width="1"/>
                <path id="Path_6240" data-name="Path 6240" d="M42.3,28Z" transform="translate(-31.806 -23.695)" fill="#fde4b0" stroke="#707070" stroke-linecap="round" stroke-width="1"/>
                <path id="Path_6241" data-name="Path 6241" d="M42.3,27.9Z" transform="translate(-31.806 -23.725)" fill="#fde4b0" stroke="#707070" stroke-linecap="round" stroke-width="1"/>
                <path id="Path_6242" data-name="Path 6242" d="M42.4,28.014Z" transform="translate(-32.036 -23.709)" fill="#fde4b0" stroke="#707070" stroke-linecap="round" stroke-linejoin="round" stroke-width="1"/>
                <path id="Path_6243" data-name="Path 6243" d="M42.2,28.2h0v-.13h0v-.13c0-.13.13-.261.13,0C42.2,27.935,42.2,28.066,42.2,28.2Z" transform="translate(-31.706 -23.761)" fill="#fde4b0" stroke="#707070" stroke-linecap="round" stroke-linejoin="round" stroke-width="1"/>
                <path id="Path_6244" data-name="Path 6244" d="M40.955,27.769h0v0h0v-.261l-.13.13v0s.13-.261.13-.13C41.086,27.509,41.086,27.509,40.955,27.769Z" transform="translate(-28.635 -23.856)" fill="#fde4b0" stroke="#707070" stroke-linecap="round" stroke-linejoin="round" stroke-width="1"/>
                <path id="Path_6245" data-name="Path 6245" d="M43.914,28.722c0-.13-.13,0,0-.261v-.13h0v-.391h0v-.13c0,.13,0-.13.13,0,.13-.13,0,.261,0,.391v.391C43.914,28.722,43.914,28.852,43.914,28.722Z" transform="translate(-35.637 -23.765)" fill="#fde4b0" stroke="#707070" stroke-linecap="round" stroke-linejoin="round" stroke-width="1"/>
                <path id="Path_6246" data-name="Path 6246" d="M46.5,27.5Z" transform="translate(-41.485 -23.847)" fill="#fde4b0" stroke="#707070" stroke-linecap="round" stroke-linejoin="round" stroke-width="1"/>
                <path id="Path_6247" data-name="Path 6247" d="M48.461,27.376c-.13.391-.261.261-.261,0l.13-.261S48.461,26.854,48.461,27.376Z" transform="translate(-45.663 -23.984)" fill="#fde4b0" stroke="#707070" stroke-linecap="round" stroke-linejoin="round" stroke-width="1"/>
                <path id="Path_6248" data-name="Path 6248" d="M41.686,27.622c-.13.391-.13.13-.261.13v-.391h0l.13-.261h.13C41.816,27.23,41.816,27.361,41.686,27.622Z" transform="translate(-30.148 -23.969)" fill="#fde4b0" stroke="#707070" stroke-linecap="round" stroke-linejoin="round" stroke-width="1"/>
                <path id="Path_6249" data-name="Path 6249" d="M45.661,27.6v.522c-.13.522-.13-.13-.261,0v-.13S45.53,27.6,45.661,27.6Z" transform="translate(-39.211 -23.817)" fill="#fde4b0" stroke="#707070" stroke-linecap="round" stroke-linejoin="round" stroke-width="1"/>
                <path id="Path_6250" data-name="Path 6250" d="M42.9,27.3v.13h0V27.3Z" transform="translate(-33.188 -23.908)" fill="#fde4b0" stroke="#707070" stroke-linecap="round" stroke-linejoin="round" stroke-width="1"/>
                <path id="Path_6251" data-name="Path 6251" d="M49.13,27.009c0,.261,0,.13-.13.13l.13-.13Z" transform="translate(-47.377 -24.008)" fill="#fde4b0" stroke="#707070" stroke-linecap="round" stroke-width="1"/>
                <path id="Path_6252" data-name="Path 6252" d="M47.8,29.323Z" transform="translate(-44.348 -23.322)" fill="#fde4b0" stroke="#707070" stroke-linecap="round" stroke-width="1"/>
                <path id="Path_6253" data-name="Path 6253" d="M49.3,29.342c.13.13.13-.391.13-.261V28.82h0c.13,0,.261-.261.261.13,0,.261-.13.261-.13.391h-.13C49.43,29.472,49.3,29.342,49.3,29.342Z" transform="translate(-48.329 -23.471)" fill="#fde4b0" stroke="#707070" stroke-linecap="round" stroke-linejoin="round" stroke-width="1"/>
                <path id="Path_6254" data-name="Path 6254" d="M50.025,29.23V29.1c.13,0,.13,0,0,.13Z" transform="translate(-49.706 -23.36)" fill="#fde4b0" stroke="#707070" stroke-linecap="round" stroke-width="1"/>
                <path id="Path_6255" data-name="Path 6255" d="M49.8,28.8Z" transform="translate(-48.957 -23.451)" fill="#fde4b0" stroke="#707070" stroke-linecap="round" stroke-width="1"/>
                <path id="Path_6256" data-name="Path 6256" d="M50,28.83h0v0Z" transform="translate(-49.551 -23.482)" fill="#fde4b0" stroke="#707070" stroke-linecap="round" stroke-width="1"/>
                <path id="Path_6257" data-name="Path 6257" d="M49.73,24.8h0c-.13.261-.13.13-.13,0h.13Z" transform="translate(-48.759 -24.67)" fill="#fde4b0" stroke="#707070" stroke-linecap="round" stroke-linejoin="round" stroke-width="1"/>
                <path id="Path_6258" data-name="Path 6258" d="M40.2,26.852h0v-.261c0-.13.13-.261.261-.391v1.044a1.314,1.314,0,0,1-.13.391C40.2,27.635,40.2,27.374,40.2,26.852Z" transform="translate(-27.227 -24.243)" fill="#fde4b0" stroke="#707070" stroke-linecap="round" stroke-linejoin="round" stroke-width="1"/>
                <path id="Path_6259" data-name="Path 6259" d="M44.5,29.3Z" transform="translate(-36.876 -23.299)" fill="#fde4b0" stroke="#707070" stroke-linecap="round" stroke-width="1"/>
                <path id="Path_6260" data-name="Path 6260" d="M46.1,28.114Z" transform="translate(-40.563 -23.678)" fill="#fde4b0" stroke="#707070" stroke-linecap="round" stroke-linejoin="round" stroke-width="1"/>
                <path id="Path_6261" data-name="Path 6261" d="M50.2,28.53V28.4l.13.13Z" transform="translate(-50.142 -23.573)" fill="#fde4b0" stroke="#707070" stroke-linecap="round" stroke-linejoin="round" stroke-width="1"/>
                <path id="Path_6262" data-name="Path 6262" d="M46.9,28.8v0Z" transform="translate(-42.407 -23.451)" fill="#fde4b0" stroke="#707070" stroke-linecap="round" stroke-width="1"/>
                <path id="Path_6263" data-name="Path 6263" d="M48.5,29.214h0l.13.13-.13-.13Z" transform="translate(-46.224 -23.343)" fill="#fde4b0" stroke="#707070" stroke-linecap="round" stroke-width="1"/>
                <path id="Path_6264" data-name="Path 6264" d="M48.73,29.331c0-.13,0-.261-.13-.261v-.13c.13-.261.261-.261.391-.391v-.13c.13-.261.13.261.261,0v.13l.13.261V29.2a.128.128,0,0,1-.13.13c-.13.261-.261.261-.261.391H48.6C48.6,29.461,48.6,29.461,48.73,29.331Z" transform="translate(-47.107 -23.591)" fill="#fde4b0" stroke="#707070" stroke-linecap="round" stroke-linejoin="round" stroke-width="1"/>
                <path id="Path_6265" data-name="Path 6265" d="M48.4,29.2Z" transform="translate(-45.863 -23.33)" fill="#fde4b0" stroke="#707070" stroke-linecap="round" stroke-width="1"/>
                <path id="Path_6266" data-name="Path 6266" d="M40.4,27.122v-.261h0V26.6h.13a1.314,1.314,0,0,1,.13.391C40.53,27.252,40.4,27.122,40.4,27.122Z" transform="translate(-27.688 -24.121)" fill="#fde4b0" stroke="#707070" stroke-linecap="round" stroke-linejoin="round" stroke-width="1"/>
                <path id="Path_6267" data-name="Path 6267" d="M48.261,28.73v.783H48c0-.261,0-.391.13-.522v-.13c0-.261.13.13.13-.261Z" transform="translate(-45.202 -23.512)" fill="#fde4b0" stroke="#707070" stroke-linecap="round" stroke-linejoin="round" stroke-width="1"/>
                <path id="Path_6268" data-name="Path 6268" d="M48.661,27.63c.13-.261.13.13.261-.13a.128.128,0,0,0,.13.13v.391c-.13.652-.261.522-.522.652v-.261c0-.13,0-.13-.13-.13v-.13c.261-.261.261-.391.261-.522C48.791,27.63,48.791,27.5,48.661,27.63Z" transform="translate(-46.516 -23.847)" fill="#fde4b0" stroke="#707070" stroke-linecap="round" stroke-linejoin="round" stroke-width="1"/>
                <path id="Path_6269" data-name="Path 6269" d="M49.6,27.93v0Z" transform="translate(-48.629 -23.756)" fill="#fde4b0" stroke="#707070" stroke-linecap="round" stroke-linejoin="round" stroke-width="1"/>
                <path id="Path_6270" data-name="Path 6270" d="M47.5,29Z" transform="translate(-43.789 -23.39)" fill="#fde4b0" stroke="#707070" stroke-linecap="round" stroke-width="1"/>
                <path id="Path_6271" data-name="Path 6271" d="M46.1,28.014v.13h0c-.13,0,0,0,0-.13Z" transform="translate(-40.43 -23.709)" fill="#fde4b0" stroke="#707070" stroke-linecap="round" stroke-linejoin="round" stroke-width="1"/>
                <path id="Path_6272" data-name="Path 6272" d="M43.4,27Z" transform="translate(-34.341 -24)" fill="#fde4b0" stroke="#707070" stroke-linecap="round" stroke-linejoin="round" stroke-width="1"/>
                <path id="Path_6273" data-name="Path 6273" d="M47.5,29.23h0c.13-.13.13,0,0,0l.13-.13h0v.13C47.63,29.361,47.5,29.23,47.5,29.23Z" transform="translate(-43.92 -23.36)" fill="#fde4b0" stroke="#707070" stroke-linecap="round" stroke-linejoin="round" stroke-width="1"/>
                <path id="Path_6274" data-name="Path 6274" d="M45.425,27.13h0V27h0v.13Z" transform="translate(-39.105 -24)" fill="#fde4b0" stroke="#707070" stroke-linecap="round" stroke-linejoin="round" stroke-width="1"/>
                <path id="Path_6275" data-name="Path 6275" d="M50.252,27.976c0,.261-.13.261-.261.391s-.261,0-.391-.13c0,.13.13-.391.261-.261v-.261h0C49.991,27.715,50.252,27.454,50.252,27.976Z" transform="translate(-49.281 -23.802)" fill="#fde4b0" stroke="#707070" stroke-linecap="round" stroke-linejoin="round" stroke-width="1"/>
                <path id="Path_6276" data-name="Path 6276" d="M49.591,27.35c0,.261,0,.261-.13.391s-.261.13-.261,0c.13.13,0-.261.13-.261V27.22h0C49.461,27.22,49.591,26.959,49.591,27.35Z" transform="translate(-48.098 -23.959)" fill="#fde4b0" stroke="#707070" stroke-linecap="round" stroke-linejoin="round" stroke-width="1"/>
                <path id="Path_6277" data-name="Path 6277" d="M49.3,27.8v0Z" transform="translate(-47.937 -23.756)" fill="#fde4b0" stroke="#707070" stroke-linecap="round" stroke-width="1"/>
                <path id="Path_6278" data-name="Path 6278" d="M47.5,29Z" transform="translate(-43.789 -23.39)" fill="#fde4b0" stroke="#707070" stroke-linecap="round" stroke-linejoin="round" stroke-width="1"/>
                <path id="Path_6279" data-name="Path 6279" d="M46.1,28.1Z" transform="translate(-40.563 -23.665)" fill="#fde4b0" stroke="#707070" stroke-linecap="round" stroke-width="1"/>
                <path id="Path_6280" data-name="Path 6280" d="M46.1,28.1Z" transform="translate(-40.563 -23.665)" fill="#fde4b0" stroke="#707070" stroke-linecap="round" stroke-width="1"/>
                <path id="Path_6281" data-name="Path 6281" d="M47.556,27.923h0c.13.13,0,.13,0,.261Z" transform="translate(-43.975 -23.748)" fill="#fde4b0" stroke="#707070" stroke-linecap="round" stroke-width="1"/>
                <path id="Path_6282" data-name="Path 6282" d="M46.1,28Z" transform="translate(-40.563 -23.695)" fill="#fde4b0" stroke="#707070" stroke-linecap="round" stroke-width="1"/>
                <path id="Path_6283" data-name="Path 6283" d="M46.1,28.1Z" transform="translate(-40.563 -23.665)" fill="#fde4b0" stroke="#707070" stroke-linecap="round" stroke-linejoin="round" stroke-width="1"/>
                <path id="Path_6284" data-name="Path 6284" d="M46.1,28.1Z" transform="translate(-40.563 -23.665)" fill="#fde4b0" stroke="#707070" stroke-linecap="round" stroke-width="1"/>
                <path id="Path_6285" data-name="Path 6285" d="M47.5,28.923v.261c-.13.13-.13-.13,0-.261Z" transform="translate(-43.657 -23.444)" fill="#fde4b0" stroke="#707070" stroke-linecap="round" stroke-width="1"/>
                <path id="Path_6286" data-name="Path 6286" d="M46.43,28.627c0,.391,0,.13-.13.261,0-.13,0-.13.13-.261C46.3,28.366,46.3,28.627,46.43,28.627Z" transform="translate(-41.154 -23.539)" fill="#fde4b0" stroke="#707070" stroke-linecap="round" stroke-width="1"/>
                <path id="Path_6287" data-name="Path 6287" d="M47.6,29.1Z" transform="translate(-43.887 -23.36)" fill="#fde4b0" stroke="#707070" stroke-linecap="round" stroke-linejoin="round" stroke-width="1"/>
                <path id="Path_6288" data-name="Path 6288" d="M46.858,28.167v.13c0-.13-.13-.522,0-.391Z" transform="translate(-42.234 -23.732)" fill="#fde4b0" stroke="#707070" stroke-linecap="round" stroke-width="1"/>
                <path id="Path_6289" data-name="Path 6289" d="M46.456,28.414h0c0,.13.13.261,0,.261Z" transform="translate(-41.44 -23.587)" fill="#fde4b0" stroke="#707070" stroke-linecap="round" stroke-width="1"/>
                <path id="Path_6290" data-name="Path 6290" d="M48,28.484s0-.261.13-.261h0c-.13,0-.13,0-.13.261v-.13h0v-.13h0v.261Z" transform="translate(-45.072 -23.657)" fill="#fde4b0" stroke="#707070" stroke-linecap="round" stroke-linejoin="round" stroke-width="1"/>
              </g>
            </g>
          </g>
          <path id="Path_6291" data-name="Path 6291" d="M16.1,27.67c0-1.565.522-2.87,1.044-2.87h.391v5.87h-.391C16.491,30.67,16.1,29.366,16.1,27.67Z" transform="translate(18.682 -24.67)" fill="#39393a" stroke="#707070" stroke-linecap="round" stroke-linejoin="round" stroke-width="1"/>
          <path id="Path_6292" data-name="Path 6292" d="M16.344,30.64c-.522,0-1.044-1.3-1.044-2.87s.522-2.87,1.044-2.87,1.044,1.3,1.044,2.87S16.865,30.64,16.344,30.64Z" transform="translate(19.873 -24.639)" fill="#d64121" stroke="#707070" stroke-linecap="round" stroke-linejoin="round" stroke-width="1"/>
        </g>
        <g id="Group_7685" data-name="Group 7685" transform="translate(32.825)">
          <path id="Path_6293" data-name="Path 6293" d="M15.347,16.679c0-.13.13-.391.13-.522s.13-.261.13-.391c0-.261.13-.391.13-.522a1.8,1.8,0,0,1,.391-.522c.13-.13.261-.261.261-.391l.13-.13v.13a.479.479,0,0,1-.13.391,5.65,5.65,0,0,0-.13.652v.783a2.547,2.547,0,0,0,.13.913,3.319,3.319,0,0,0,.261.913,5.672,5.672,0,0,1,.522.913c.261.261.522.652.783.913a7.236,7.236,0,0,1,.783,1.044,5.288,5.288,0,0,1,.652,1.174l.391,1.174a1.81,1.81,0,0,1,0,1.174.784.784,0,0,1-.13.522c0,.13-.13.261-.13.391-.13.261-.13.522-.261.652s-.13.261-.261.391a.128.128,0,0,1-.13.13V24.9a.479.479,0,0,0-.13-.391,8.314,8.314,0,0,1-.261-.913,7.483,7.483,0,0,0-.522-.913c-.13-.261-.391-.522-.652-.913-.261-.261-.522-.652-.783-.913a7.236,7.236,0,0,1-.783-1.044c-.261-.391-.391-.783-.652-1.174a4.635,4.635,0,0,1-.261-1.3C15.216,17.07,15.216,16.809,15.347,16.679Z" transform="translate(-14.825 -14.2)" fill="#b8bdc3" stroke="#707070" stroke-linecap="round" stroke-linejoin="round" stroke-width="1"/>
          <path id="Path_6294" data-name="Path 6294" d="M15.157,25.58c0-.13.13-.261.13-.522a2.2,2.2,0,0,1,.261-.652c0-.13.13-.261.13-.391v-.261a.479.479,0,0,1,.13-.391V21.405l-.13-.391c0-.13-.13-.261-.13-.391s-.13-.261-.13-.391-.13-.261-.13-.391c-.13-.13-.13-.261-.261-.391s-.13-.261-.261-.391c-.13-.261-.261-.391-.391-.652,0-.13-.13-.13-.261-.261s-.13-.13-.13-.261l-.391-.391c-.13-.13-.13-.261-.261-.261a.128.128,0,0,0-.13-.13h.13c.13,0,.13,0,.391.13.13,0,.261.13.522.261.13.13.391.13.652.391a1.3,1.3,0,0,1,.652.522c.13.13.261.261.391.261l.391.391c.13.13.261.261.261.391s.13.13.13.261.13.13.13.261c.13.13.13.391.261.522,0,.13.13.391.13.522a.784.784,0,0,0,.13.522v.522a.784.784,0,0,1-.13.522.784.784,0,0,1-.13.522c0,.13-.13.391-.13.522-.13.13-.13.261-.261.391-.13.261-.391.522-.522.783s-.391.391-.522.522l-.391.391c-.13.13-.261.13-.261.261a.128.128,0,0,0-.13.13v-.13C15.157,25.84,15.157,25.71,15.157,25.58Z" transform="translate(-10.2 -13.317)" fill="#b8bdc3" stroke="#707070" stroke-linecap="round" stroke-linejoin="round" stroke-width="1"/>
        </g>
      </g>
    </g>
    <g id="Group_7687" data-name="Group 7687" transform="translate(0 0)">
      <g id="Cigar-2" data-name="Cigar" transform="translate(0 0)">
        <g id="Group_7684-2" data-name="Group 7684" transform="translate(0 9.869)">
          <g id="Group_7683-2" data-name="Group 7683">
            <rect id="Rectangle_3724-2" data-name="Rectangle 3724" width="31.44" height="5.87" transform="translate(4.777 0.13)" fill="#e3e5e7"/>
            <g id="Group_7682-2" data-name="Group 7682">
              <path id="Path_6189-2" data-name="Path 6189" d="M40.2,27.67c0-1.565.522-2.87,1.044-2.87H54.55v5.87H41.244C40.722,30.67,40.2,29.366,40.2,27.67Z" transform="translate(-40.2 -24.67)" fill="#fabb3a"/>
              <g id="Group_7681-2" data-name="Group 7681" transform="translate(1.116)">
                <path id="Path_6190-2" data-name="Path 6190" d="M45.1,27.022h0a1.3,1.3,0,0,0,.13-.522,1.314,1.314,0,0,1,.13.391C45.361,27.283,45.1,26.891,45.1,27.022Z" transform="translate(-38.519 -24.152)" fill="#fde4b0"/>
                <path id="Path_6191-2" data-name="Path 6191" d="M47.6,25.5Z" transform="translate(-44.02 -24.456)" fill="#fde4b0"/>
                <path id="Path_6192-2" data-name="Path 6192" d="M44.7,26h0v-.13c0-.13.13-.391.261-.261V26c0,.13,0,.261-.13.261C44.7,26.391,44.7,26.261,44.7,26Z" transform="translate(-37.597 -24.434)" fill="#fde4b0"/>
                <path id="Path_6193-2" data-name="Path 6193" d="M49.056,27.03V26.9s.13,0,0,.13Z" transform="translate(-47.432 -24.03)" fill="#fde4b0"/>
                <path id="Path_6194-2" data-name="Path 6194" d="M47.561,25.934s.13,0,.13-.261c.13-.13.13,0,.13.13V26.2c-.13.13-.13.13-.261,0,.13-.261,0-.13,0-.261h0c-.13.261-.261,0-.261-.13,0,0,0,.13.13-.13v-.13c.13-.13.261-.261.261-.13V25.8A.128.128,0,0,0,47.561,25.934Zm-.13-.261Z" transform="translate(-43.85 -24.499)" fill="#fde4b0"/>
                <path id="Path_6195-2" data-name="Path 6195" d="M42.43,25.93l-.13-.13h0Z" transform="translate(-31.936 -24.365)" fill="#fde4b0"/>
                <path id="Path_6196-2" data-name="Path 6196" d="M47.13,25.413h0c-.13.261-.13.13-.13.13C47,25.413,47,25.282,47.13,25.413Z" transform="translate(-42.767 -24.499)" fill="#fde4b0"/>
                <path id="Path_6197-2" data-name="Path 6197" d="M43.83,26.8h0Z" transform="translate(-35.162 -24.06)" fill="#fde4b0"/>
                <path id="Path_6198-2" data-name="Path 6198" d="M42.5,26.13h0v-.522h0v.522Z" transform="translate(-32.266 -24.434)" fill="#fde4b0"/>
                <path id="Path_6199-2" data-name="Path 6199" d="M44.3,25.986c0-.261.13-.522.13-.261v.261C44.43,26.117,44.43,25.986,44.3,25.986Z" transform="translate(-36.545 -24.421)" fill="#fde4b0"/>
                <path id="Path_6200-2" data-name="Path 6200" d="M45.1,26.443h0v0h0v0Z" transform="translate(-38.258 -24.225)" fill="#fde4b0"/>
                <path id="Path_6201-2" data-name="Path 6201" d="M47.9,25.9v0Z" transform="translate(-44.711 -24.335)" fill="#fde4b0"/>
                <path id="Path_6202-2" data-name="Path 6202" d="M47.9,26.461h0c.13-.13.13-.261.261-.261v.261C48.03,26.722,48.03,26.461,47.9,26.461Z" transform="translate(-44.972 -24.243)" fill="#fde4b0"/>
                <path id="Path_6203-2" data-name="Path 6203" d="M47.6,26.591h0v-.13c.13-.13.13-.261.261-.261v.261c0,.13,0,.13-.13.261C47.73,26.983,47.6,26.852,47.6,26.591Zm.13,0Z" transform="translate(-44.281 -24.243)" fill="#fde4b0"/>
                <path id="Path_6204-2" data-name="Path 6204" d="M50.03,26.074h0c0-.13.13-.13.13-.261h0c.13-.13.13.13.13,0V26.2c-.13.261-.261.13-.391.261,0-.13.13-.13.13-.391Z" transform="translate(-49.712 -24.379)" fill="#fde4b0"/>
                <path id="Path_6205-2" data-name="Path 6205" d="M48.661,25.861c-.13.261-.261.261-.261,0l.13-.261C48.53,25.73,48.661,25.47,48.661,25.861Z" transform="translate(-46.124 -24.426)" fill="#fde4b0"/>
                <path id="Path_6206-2" data-name="Path 6206" d="M47.8,26.414Z" transform="translate(-44.481 -24.196)" fill="#fde4b0"/>
                <path id="Path_6207-2" data-name="Path 6207" d="M43.03,26.669c-.13.261-.13.13-.13.13.13-.261.13-.522.261-.391Z" transform="translate(-33.449 -24.19)" fill="#fde4b0"/>
                <path id="Path_6208-2" data-name="Path 6208" d="M48.1,26.13v0Z" transform="translate(-45.172 -24.304)" fill="#fde4b0"/>
                <path id="Path_6209-2" data-name="Path 6209" d="M45.53,26.361c-.13.261-.13.13,0,0-.13.13-.13,0,0,0h0L45.4,26.1h0C45.53,26.23,45.53,26.23,45.53,26.361Z" transform="translate(-39.08 -24.274)" fill="#fde4b0"/>
                <path id="Path_6210-2" data-name="Path 6210" d="M43.53,26.369c0,.261-.13.13-.13.13,0-.261.13-.522.13-.391Z" transform="translate(-34.471 -24.282)" fill="#fde4b0"/>
                <path id="Path_6211-2" data-name="Path 6211" d="M44.6,26.2Z" transform="translate(-37.106 -24.243)" fill="#fde4b0"/>
                <path id="Path_6212-2" data-name="Path 6212" d="M48,26.93h0v0Z" transform="translate(-44.942 -24.06)" fill="#fde4b0"/>
                <path id="Path_6213-2" data-name="Path 6213" d="M48.1,24.9Z" transform="translate(-45.172 -24.639)" fill="#fde4b0"/>
                <path id="Path_6214-2" data-name="Path 6214" d="M44.1,24.8h.261v.13c0-.391-.13.261-.13,0a.128.128,0,0,1-.13-.13Z" transform="translate(-36.215 -24.67)" fill="#fde4b0"/>
                <path id="Path_6215-2" data-name="Path 6215" d="M48.161,24.8v.391c-.13.13-.13,0-.261-.13v-.13h0C48.03,24.93,48.03,24.8,48.161,24.8Zm-.13.261Z" transform="translate(-44.972 -24.67)" fill="#fde4b0"/>
                <path id="Path_6216-2" data-name="Path 6216" d="M41.7,25.5Z" transform="translate(-30.423 -24.456)" fill="#fde4b0"/>
                <path id="Path_6217-2" data-name="Path 6217" d="M41.53,25.169h0v-.261c-.13,0-.13,0,0,.261h0c-.13.13-.13-.13-.13-.13s0-.261.13-.13Z" transform="translate(-29.862 -24.648)" fill="#fde4b0"/>
                <path id="Path_6218-2" data-name="Path 6218" d="M44.4,24.914Z" transform="translate(-36.645 -24.653)" fill="#fde4b0"/>
                <path id="Path_6219-2" data-name="Path 6219" d="M41.73,25.552v-.13h0v-.261h0v-.13h0V24.9h.13v1.3s-.13.261-.13,0a.128.128,0,0,0-.13-.13h0c.13-.391.13-.391.13-.522Z" transform="translate(-30.453 -24.639)" fill="#fde4b0"/>
                <path id="Path_6220-2" data-name="Path 6220" d="M41.63,28.714v.261c-.13.13-.13,0-.13-.13h.13v-.13h0c-.13-.13-.13,0,0,0v0Z" transform="translate(-30.092 -23.495)" fill="#fde4b0"/>
                <path id="Path_6221-2" data-name="Path 6221" d="M47.991,25.061c0,.13-.13.261-.261,0,0-.261,0-.13-.13-.261h.261A.4.4,0,0,1,47.991,25.061Z" transform="translate(-44.411 -24.67)" fill="#fde4b0"/>
                <path id="Path_6222-2" data-name="Path 6222" d="M50.314,25.414h0c.13.261,0,.261,0,.261h0v-.261Z" transform="translate(-50.256 -24.5)" fill="#fde4b0"/>
                <path id="Path_6223-2" data-name="Path 6223" d="M49.1,26.661c0-.13,0-.261.13-.261,0,.13,0,.13-.13.261Z" transform="translate(-47.607 -24.182)" fill="#fde4b0"/>
                <path id="Path_6224-2" data-name="Path 6224" d="M40.43,28v.261c0,.13-.13,0-.13,0h.13V28h0v0Z" transform="translate(-27.327 -23.695)" fill="#fde4b0"/>
                <path id="Path_6225-2" data-name="Path 6225" d="M44.356,29.183h0v-.13h0v-.13c.13-.13.13-.522.261-.522a.128.128,0,0,0,.13.13h0a.63.63,0,0,1,0,.522C44.486,29.7,44.486,29.052,44.356,29.183Z" transform="translate(-36.992 -23.573)" fill="#fde4b0"/>
                <path id="Path_6226-2" data-name="Path 6226" d="M48.2,25.4v0Z" transform="translate(-45.402 -24.487)" fill="#fde4b0"/>
                <path id="Path_6227-2" data-name="Path 6227" d="M48.161,25.3v.522c0,.261-.13.13-.261-.13v-.13h0C48.03,25.43,48.03,25.3,48.161,25.3Zm-.13.391Z" transform="translate(-44.972 -24.517)" fill="#fde4b0"/>
                <path id="Path_6228-2" data-name="Path 6228" d="M48,25.5Z" transform="translate(-44.942 -24.456)" fill="#fde4b0"/>
                <path id="Path_6229-2" data-name="Path 6229" d="M49.6,26.2h0v.13C49.467,26.33,49.467,26.33,49.6,26.2Z" transform="translate(-48.496 -24.243)" fill="#fde4b0"/>
                <path id="Path_6230-2" data-name="Path 6230" d="M42.33,26.6h0v-.261h0a1.176,1.176,0,0,0-.13-.652v0h0V25.3c0,.13,0,.261.13.13l.13.13V26.6a.4.4,0,0,1-.13.261C42.461,26.865,42.461,26.865,42.33,26.6Z" transform="translate(-31.836 -24.517)" fill="#fde4b0"/>
                <path id="Path_6231-2" data-name="Path 6231" d="M48.564,26.491h0v.261c0,.391-.13.261-.261.13v-.261c-.13,0-.13-.13-.13-.261l.13-.261C48.434,26.23,48.695,25.97,48.564,26.491Z" transform="translate(-45.767 -24.274)" fill="#fde4b0"/>
                <path id="Path_6232-2" data-name="Path 6232" d="M41.7,26.261h0v-.13h0V26h0v.261l.13-.13V26l-.13.261Z" transform="translate(-30.553 -24.304)" fill="#fde4b0"/>
                <path id="Path_6233-2" data-name="Path 6233" d="M42.2,25v0Z" transform="translate(-31.575 -24.609)" fill="#fde4b0"/>
                <path id="Path_6234-2" data-name="Path 6234" d="M41.9,25.061h0V24.8h.13v.261c0,.391-.13.13-.13.13Z" transform="translate(-31.014 -24.67)" fill="#fde4b0"/>
                <path id="Path_6235-2" data-name="Path 6235" d="M47,25.222c.13-.261,0-.13,0-.261s.13,0,.13-.261h.13v.13a.479.479,0,0,1-.13.391C47.13,25.483,47,25.483,47,25.222Z" transform="translate(-42.898 -24.7)" fill="#fde4b0"/>
                <path id="Path_6236-2" data-name="Path 6236" d="M44.6,25h0v0Z" transform="translate(-37.106 -24.609)" fill="#fde4b0"/>
                <path id="Path_6237-2" data-name="Path 6237" d="M43.1,24.8Z" transform="translate(-33.649 -24.67)" fill="#fde4b0"/>
                <path id="Path_6238-2" data-name="Path 6238" d="M47.3,25.6Z" transform="translate(-43.328 -24.426)" fill="#fde4b0"/>
                <path id="Path_6239-2" data-name="Path 6239" d="M42.3,28.1Z" transform="translate(-31.806 -23.665)" fill="#fde4b0"/>
                <path id="Path_6240-2" data-name="Path 6240" d="M42.3,28Z" transform="translate(-31.806 -23.695)" fill="#fde4b0"/>
                <path id="Path_6241-2" data-name="Path 6241" d="M42.3,27.9Z" transform="translate(-31.806 -23.725)" fill="#fde4b0"/>
                <path id="Path_6242-2" data-name="Path 6242" d="M42.4,28.014Z" transform="translate(-32.036 -23.709)" fill="#fde4b0"/>
                <path id="Path_6243-2" data-name="Path 6243" d="M42.2,28.2h0v-.13h0v-.13c0-.13.13-.261.13,0C42.2,27.935,42.2,28.066,42.2,28.2Z" transform="translate(-31.706 -23.761)" fill="#fde4b0"/>
                <path id="Path_6244-2" data-name="Path 6244" d="M40.955,27.769h0v0h0v-.261l-.13.13v0s.13-.261.13-.13C41.086,27.509,41.086,27.509,40.955,27.769Z" transform="translate(-28.635 -23.856)" fill="#fde4b0"/>
                <path id="Path_6245-2" data-name="Path 6245" d="M43.914,28.722c0-.13-.13,0,0-.261v-.13h0v-.391h0v-.13c0,.13,0-.13.13,0,.13-.13,0,.261,0,.391v.391C43.914,28.722,43.914,28.852,43.914,28.722Z" transform="translate(-35.637 -23.765)" fill="#fde4b0"/>
                <path id="Path_6246-2" data-name="Path 6246" d="M46.5,27.5Z" transform="translate(-41.485 -23.847)" fill="#fde4b0"/>
                <path id="Path_6247-2" data-name="Path 6247" d="M48.461,27.376c-.13.391-.261.261-.261,0l.13-.261S48.461,26.854,48.461,27.376Z" transform="translate(-45.663 -23.984)" fill="#fde4b0"/>
                <path id="Path_6248-2" data-name="Path 6248" d="M41.686,27.622c-.13.391-.13.13-.261.13v-.391h0l.13-.261h.13C41.816,27.23,41.816,27.361,41.686,27.622Z" transform="translate(-30.148 -23.969)" fill="#fde4b0"/>
                <path id="Path_6249-2" data-name="Path 6249" d="M45.661,27.6v.522c-.13.522-.13-.13-.261,0v-.13S45.53,27.6,45.661,27.6Z" transform="translate(-39.211 -23.817)" fill="#fde4b0"/>
                <path id="Path_6250-2" data-name="Path 6250" d="M42.9,27.3v.13h0V27.3Z" transform="translate(-33.188 -23.908)" fill="#fde4b0"/>
                <path id="Path_6251-2" data-name="Path 6251" d="M49.13,27.009c0,.261,0,.13-.13.13l.13-.13Z" transform="translate(-47.377 -24.008)" fill="#fde4b0"/>
                <path id="Path_6252-2" data-name="Path 6252" d="M47.8,29.323Z" transform="translate(-44.348 -23.322)" fill="#fde4b0"/>
                <path id="Path_6253-2" data-name="Path 6253" d="M49.3,29.342c.13.13.13-.391.13-.261V28.82h0c.13,0,.261-.261.261.13,0,.261-.13.261-.13.391h-.13C49.43,29.472,49.3,29.342,49.3,29.342Z" transform="translate(-48.329 -23.471)" fill="#fde4b0"/>
                <path id="Path_6254-2" data-name="Path 6254" d="M50.025,29.23V29.1c.13,0,.13,0,0,.13Z" transform="translate(-49.706 -23.36)" fill="#fde4b0"/>
                <path id="Path_6255-2" data-name="Path 6255" d="M49.8,28.8Z" transform="translate(-48.957 -23.451)" fill="#fde4b0"/>
                <path id="Path_6256-2" data-name="Path 6256" d="M50,28.83h0v0Z" transform="translate(-49.551 -23.482)" fill="#fde4b0"/>
                <path id="Path_6257-2" data-name="Path 6257" d="M49.73,24.8h0c-.13.261-.13.13-.13,0h.13Z" transform="translate(-48.759 -24.67)" fill="#fde4b0"/>
                <path id="Path_6258-2" data-name="Path 6258" d="M40.2,26.852h0v-.261c0-.13.13-.261.261-.391v1.044a1.314,1.314,0,0,1-.13.391C40.2,27.635,40.2,27.374,40.2,26.852Z" transform="translate(-27.227 -24.243)" fill="#fde4b0"/>
                <path id="Path_6259-2" data-name="Path 6259" d="M44.5,29.3Z" transform="translate(-36.876 -23.299)" fill="#fde4b0"/>
                <path id="Path_6260-2" data-name="Path 6260" d="M46.1,28.114Z" transform="translate(-40.563 -23.678)" fill="#fde4b0"/>
                <path id="Path_6261-2" data-name="Path 6261" d="M50.2,28.53V28.4l.13.13Z" transform="translate(-50.142 -23.573)" fill="#fde4b0"/>
                <path id="Path_6262-2" data-name="Path 6262" d="M46.9,28.8v0Z" transform="translate(-42.407 -23.451)" fill="#fde4b0"/>
                <path id="Path_6263-2" data-name="Path 6263" d="M48.5,29.214h0l.13.13-.13-.13Z" transform="translate(-46.224 -23.343)" fill="#fde4b0"/>
                <path id="Path_6264-2" data-name="Path 6264" d="M48.73,29.331c0-.13,0-.261-.13-.261v-.13c.13-.261.261-.261.391-.391v-.13c.13-.261.13.261.261,0v.13l.13.261V29.2a.128.128,0,0,1-.13.13c-.13.261-.261.261-.261.391H48.6C48.6,29.461,48.6,29.461,48.73,29.331Z" transform="translate(-47.107 -23.591)" fill="#fde4b0"/>
                <path id="Path_6265-2" data-name="Path 6265" d="M48.4,29.2Z" transform="translate(-45.863 -23.33)" fill="#fde4b0"/>
                <path id="Path_6266-2" data-name="Path 6266" d="M40.4,27.122v-.261h0V26.6h.13a1.314,1.314,0,0,1,.13.391C40.53,27.252,40.4,27.122,40.4,27.122Z" transform="translate(-27.688 -24.121)" fill="#fde4b0"/>
                <path id="Path_6267-2" data-name="Path 6267" d="M48.261,28.73v.783H48c0-.261,0-.391.13-.522v-.13c0-.261.13.13.13-.261Z" transform="translate(-45.202 -23.512)" fill="#fde4b0"/>
                <path id="Path_6268-2" data-name="Path 6268" d="M48.661,27.63c.13-.261.13.13.261-.13a.128.128,0,0,0,.13.13v.391c-.13.652-.261.522-.522.652v-.261c0-.13,0-.13-.13-.13v-.13c.261-.261.261-.391.261-.522C48.791,27.63,48.791,27.5,48.661,27.63Z" transform="translate(-46.516 -23.847)" fill="#fde4b0"/>
                <path id="Path_6269-2" data-name="Path 6269" d="M49.6,27.93v0Z" transform="translate(-48.629 -23.756)" fill="#fde4b0"/>
                <path id="Path_6270-2" data-name="Path 6270" d="M47.5,29Z" transform="translate(-43.789 -23.39)" fill="#fde4b0"/>
                <path id="Path_6271-2" data-name="Path 6271" d="M46.1,28.014v.13h0c-.13,0,0,0,0-.13Z" transform="translate(-40.43 -23.709)" fill="#fde4b0"/>
                <path id="Path_6272-2" data-name="Path 6272" d="M43.4,27Z" transform="translate(-34.341 -24)" fill="#fde4b0"/>
                <path id="Path_6273-2" data-name="Path 6273" d="M47.5,29.23h0c.13-.13.13,0,0,0l.13-.13h0v.13C47.63,29.361,47.5,29.23,47.5,29.23Z" transform="translate(-43.92 -23.36)" fill="#fde4b0"/>
                <path id="Path_6274-2" data-name="Path 6274" d="M45.425,27.13h0V27h0v.13Z" transform="translate(-39.105 -24)" fill="#fde4b0"/>
                <path id="Path_6275-2" data-name="Path 6275" d="M50.252,27.976c0,.261-.13.261-.261.391s-.261,0-.391-.13c0,.13.13-.391.261-.261v-.261h0C49.991,27.715,50.252,27.454,50.252,27.976Z" transform="translate(-49.281 -23.802)" fill="#fde4b0"/>
                <path id="Path_6276-2" data-name="Path 6276" d="M49.591,27.35c0,.261,0,.261-.13.391s-.261.13-.261,0c.13.13,0-.261.13-.261V27.22h0C49.461,27.22,49.591,26.959,49.591,27.35Z" transform="translate(-48.098 -23.959)" fill="#fde4b0"/>
                <path id="Path_6277-2" data-name="Path 6277" d="M49.3,27.8v0Z" transform="translate(-47.937 -23.756)" fill="#fde4b0"/>
                <path id="Path_6278-2" data-name="Path 6278" d="M47.5,29Z" transform="translate(-43.789 -23.39)" fill="#fde4b0"/>
                <path id="Path_6279-2" data-name="Path 6279" d="M46.1,28.1Z" transform="translate(-40.563 -23.665)" fill="#fde4b0"/>
                <path id="Path_6280-2" data-name="Path 6280" d="M46.1,28.1Z" transform="translate(-40.563 -23.665)" fill="#fde4b0"/>
                <path id="Path_6281-2" data-name="Path 6281" d="M47.556,27.923h0c.13.13,0,.13,0,.261Z" transform="translate(-43.975 -23.748)" fill="#fde4b0"/>
                <path id="Path_6282-2" data-name="Path 6282" d="M46.1,28Z" transform="translate(-40.563 -23.695)" fill="#fde4b0"/>
                <path id="Path_6283-2" data-name="Path 6283" d="M46.1,28.1Z" transform="translate(-40.563 -23.665)" fill="#fde4b0"/>
                <path id="Path_6284-2" data-name="Path 6284" d="M46.1,28.1Z" transform="translate(-40.563 -23.665)" fill="#fde4b0"/>
                <path id="Path_6285-2" data-name="Path 6285" d="M47.5,28.923v.261c-.13.13-.13-.13,0-.261Z" transform="translate(-43.657 -23.444)" fill="#fde4b0"/>
                <path id="Path_6286-2" data-name="Path 6286" d="M46.43,28.627c0,.391,0,.13-.13.261,0-.13,0-.13.13-.261C46.3,28.366,46.3,28.627,46.43,28.627Z" transform="translate(-41.154 -23.539)" fill="#fde4b0"/>
                <path id="Path_6287-2" data-name="Path 6287" d="M47.6,29.1Z" transform="translate(-43.887 -23.36)" fill="#fde4b0"/>
                <path id="Path_6288-2" data-name="Path 6288" d="M46.858,28.167v.13c0-.13-.13-.522,0-.391Z" transform="translate(-42.234 -23.732)" fill="#fde4b0"/>
                <path id="Path_6289-2" data-name="Path 6289" d="M46.456,28.414h0c0,.13.13.261,0,.261Z" transform="translate(-41.44 -23.587)" fill="#fde4b0"/>
                <path id="Path_6290-2" data-name="Path 6290" d="M48,28.484s0-.261.13-.261h0c-.13,0-.13,0-.13.261v-.13h0v-.13h0v.261Z" transform="translate(-45.072 -23.657)" fill="#fde4b0"/>
              </g>
            </g>
          </g>
          <path id="Path_6291-2" data-name="Path 6291" d="M16.1,27.67c0-1.565.522-2.87,1.044-2.87h.391v5.87h-.391C16.491,30.67,16.1,29.366,16.1,27.67Z" transform="translate(18.682 -24.67)" fill="#39393a"/>
          <path id="Path_6292-2" data-name="Path 6292" d="M16.344,30.64c-.522,0-1.044-1.3-1.044-2.87s.522-2.87,1.044-2.87,1.044,1.3,1.044,2.87S16.865,30.64,16.344,30.64Z" transform="translate(19.873 -24.639)" fill="#d64121"/>
        </g>
        <g id="Group_7685-2" data-name="Group 7685" transform="translate(32.825)">
          <path id="Path_6293-2" data-name="Path 6293" d="M15.347,16.679c0-.13.13-.391.13-.522s.13-.261.13-.391c0-.261.13-.391.13-.522a1.8,1.8,0,0,1,.391-.522c.13-.13.261-.261.261-.391l.13-.13v.13a.479.479,0,0,1-.13.391,5.65,5.65,0,0,0-.13.652v.783a2.547,2.547,0,0,0,.13.913,3.319,3.319,0,0,0,.261.913,5.672,5.672,0,0,1,.522.913c.261.261.522.652.783.913a7.236,7.236,0,0,1,.783,1.044,5.288,5.288,0,0,1,.652,1.174l.391,1.174a1.81,1.81,0,0,1,0,1.174.784.784,0,0,1-.13.522c0,.13-.13.261-.13.391-.13.261-.13.522-.261.652s-.13.261-.261.391a.128.128,0,0,1-.13.13V24.9a.479.479,0,0,0-.13-.391,8.314,8.314,0,0,1-.261-.913,7.483,7.483,0,0,0-.522-.913c-.13-.261-.391-.522-.652-.913-.261-.261-.522-.652-.783-.913a7.236,7.236,0,0,1-.783-1.044c-.261-.391-.391-.783-.652-1.174a4.635,4.635,0,0,1-.261-1.3C15.216,17.07,15.216,16.809,15.347,16.679Z" transform="translate(-14.825 -14.2)" fill="#b8bdc3"/>
          <path id="Path_6294-2" data-name="Path 6294" d="M15.157,25.58c0-.13.13-.261.13-.522a2.2,2.2,0,0,1,.261-.652c0-.13.13-.261.13-.391v-.261a.479.479,0,0,1,.13-.391V21.405l-.13-.391c0-.13-.13-.261-.13-.391s-.13-.261-.13-.391-.13-.261-.13-.391c-.13-.13-.13-.261-.261-.391s-.13-.261-.261-.391c-.13-.261-.261-.391-.391-.652,0-.13-.13-.13-.261-.261s-.13-.13-.13-.261l-.391-.391c-.13-.13-.13-.261-.261-.261a.128.128,0,0,0-.13-.13h.13c.13,0,.13,0,.391.13.13,0,.261.13.522.261.13.13.391.13.652.391a1.3,1.3,0,0,1,.652.522c.13.13.261.261.391.261l.391.391c.13.13.261.261.261.391s.13.13.13.261.13.13.13.261c.13.13.13.391.261.522,0,.13.13.391.13.522a.784.784,0,0,0,.13.522v.522a.784.784,0,0,1-.13.522.784.784,0,0,1-.13.522c0,.13-.13.391-.13.522-.13.13-.13.261-.261.391-.13.261-.391.522-.522.783s-.391.391-.522.522l-.391.391c-.13.13-.261.13-.261.261a.128.128,0,0,0-.13.13v-.13C15.157,25.84,15.157,25.71,15.157,25.58Z" transform="translate(-10.2 -13.317)" fill="#b8bdc3"/>
        </g>
      </g>
    </g>
  </g>
</svg>
