<svg xmlns="http://www.w3.org/2000/svg" width="26.951" height="26.441" viewBox="0 0 26.951 26.441">
  <g id="Group_7727" data-name="Group 7727" transform="translate(0.5 0.5)">
    <g id="Group_7671" data-name="Group 7671">
      <path id="Path_6179" data-name="Path 6179" d="M34.325,45.607H8.375c0-2.49,1.51-4.748,3.037-6.381a8.15,8.15,0,0,1,5.965-2.645h.6a2.86,2.86,0,0,0,2.675,2.261h1.323a2.617,2.617,0,0,0,2.767-2.261h.579A9.223,9.223,0,0,1,34.325,45.607Z" transform="translate(-8.375 -20.166)" fill="#e3334f"/>
      <path id="Path_6162" data-name="Path 6162" d="M27.591,43.1a3.11,3.11,0,0,1-.874,1.674,3.147,3.147,0,0,1-2.247.933,2.12,2.12,0,0,1-2.12-2.12A1.59,1.59,0,0,0,23.94,42a6.634,6.634,0,0,1,1.3.138h.037A6.825,6.825,0,0,1,27.591,43.1Zm-5.24.487a2.12,2.12,0,0,1-2.12,2.12A3.179,3.179,0,0,1,17.11,43.1a6.925,6.925,0,0,1,2.31-.943h.037a6.634,6.634,0,0,1,1.3-.154,1.59,1.59,0,0,0,1.59,1.59Z" transform="translate(-9.585 -25.896)" fill="#ff9b9b"/>
      <g id="Group_7668" data-name="Group 7668" transform="translate(5)">
        <path id="Path_6184" data-name="Path 6184" d="M26.531,15.766v6.8A1.941,1.941,0,0,1,24.59,24.5H12.941A1.941,1.941,0,0,1,11,22.561v-6.6a7.984,7.984,0,0,1,5.824-7.717q.335-.087.684-.146l.388-.053L18.28,8h.951l.383.034L20,8.087a6.339,6.339,0,0,1,.684.146A7.766,7.766,0,0,1,26.531,15.766Z" transform="translate(-11 -8)" fill="#383866"/>
        <path id="Path_6185" data-name="Path 6185" d="M26.531,15.965v6.6A1.941,1.941,0,0,1,24.59,24.5H12.941a1.879,1.879,0,0,1-.233,0A1.941,1.941,0,0,1,11,22.561v-6.8a7.742,7.742,0,0,1,5.824-7.518,6.339,6.339,0,0,1,.684-.146l.388-.053L18.28,8h.951l.383.034L20,8.087q.349.058.684.146a7.7,7.7,0,0,1,2.966,1.553h0A8.057,8.057,0,0,1,26.531,15.965Z" transform="translate(-11 -8)" fill="#444472"/>
        <path id="Path_6186" data-name="Path 6186" d="M28.075,16.994v6.6a1.941,1.941,0,0,1-1.941,1.941H14.485a1.879,1.879,0,0,1-.233,0A1.941,1.941,0,0,1,14,24.561v-6.8a7.742,7.742,0,0,1,5.824-7.518,6.338,6.338,0,0,1,.684-.146l.388-.053L21.28,10h.951l.383.034.388.053q.349.058.684.146a7.363,7.363,0,0,1,1.509.582h0A8.057,8.057,0,0,1,28.075,16.994Z" transform="translate(-12.544 -9.029)" fill="#383866"/>
        <path id="Path_6187" data-name="Path 6187" d="M26.673,20.941v.291l-.18,2.315a5.681,5.681,0,0,1-11.328,0L15,21.233v-.291h.282a3.514,3.514,0,0,0,1.844-.524A3.582,3.582,0,0,0,18.4,19a3.514,3.514,0,0,0,3.14,1.941Z" transform="translate(-13.058 -13.662)" fill="#fbdb82"/>
        <path id="Path_6188" data-name="Path 6188" d="M25.456,38.969A5.757,5.757,0,0,1,24,38.78v1.563a1.456,1.456,0,0,0,2.912,0h0V38.78A5.757,5.757,0,0,1,25.456,38.969Z" transform="translate(-17.69 -23.841)" fill="#fbdb82"/>
      </g>
    </g>
    <g id="Group_7672" data-name="Group 7672">
      <path id="Path_6179-2" data-name="Path 6179" d="M34.325,45.607H8.375c0-2.49,1.51-4.748,3.037-6.381a8.15,8.15,0,0,1,5.965-2.645h.6a2.86,2.86,0,0,0,2.675,2.261h1.323a2.617,2.617,0,0,0,2.767-2.261h.579A9.223,9.223,0,0,1,34.325,45.607Z" transform="translate(-8.375 -20.166)" fill="#f59458" stroke="#414141" stroke-width="1"/>
      <path id="Path_6162-2" data-name="Path 6162" d="M27.591,43.1a3.11,3.11,0,0,1-.874,1.674,3.147,3.147,0,0,1-2.247.933,2.12,2.12,0,0,1-2.12-2.12A1.59,1.59,0,0,0,23.94,42a6.634,6.634,0,0,1,1.3.138h.037A6.825,6.825,0,0,1,27.591,43.1Zm-5.24.487a2.12,2.12,0,0,1-2.12,2.12A3.179,3.179,0,0,1,17.11,43.1a6.925,6.925,0,0,1,2.31-.943h.037a6.634,6.634,0,0,1,1.3-.154,1.59,1.59,0,0,0,1.59,1.59Z" transform="translate(-9.585 -25.896)" fill="#ff9b9b" stroke="#414141" stroke-width="1"/>
      <g id="Group_7668-2" data-name="Group 7668" transform="translate(5)">
        <g id="Group_7676" data-name="Group 7676">
          <path id="Path_6184-2" data-name="Path 6184" d="M26.531,15.766v6.8A1.941,1.941,0,0,1,24.59,24.5H12.941A1.941,1.941,0,0,1,11,22.561v-6.6a7.984,7.984,0,0,1,5.824-7.717q.335-.087.684-.146l.388-.053L18.28,8h.951l.383.034L20,8.087a6.339,6.339,0,0,1,.684.146A7.766,7.766,0,0,1,26.531,15.766Z" transform="translate(-11 -8)" fill="#383866" stroke="#414141" stroke-width="1"/>
          <path id="Path_6185-2" data-name="Path 6185" d="M26.531,15.965v6.6A1.941,1.941,0,0,1,24.59,24.5H12.941a1.879,1.879,0,0,1-.233,0A1.941,1.941,0,0,1,11,22.561v-6.8a7.742,7.742,0,0,1,5.824-7.518,6.339,6.339,0,0,1,.684-.146l.388-.053L18.28,8h.951l.383.034L20,8.087q.349.058.684.146a7.7,7.7,0,0,1,2.966,1.553h0A8.057,8.057,0,0,1,26.531,15.965Z" transform="translate(-11 -8)" fill="#615c62" stroke="#414141" stroke-width="1"/>
          <path id="Path_6186-2" data-name="Path 6186" d="M28.075,16.994v6.6a1.941,1.941,0,0,1-1.941,1.941H14.485a1.879,1.879,0,0,1-.233,0A1.941,1.941,0,0,1,14,24.561v-6.8a7.742,7.742,0,0,1,5.824-7.518,6.338,6.338,0,0,1,.684-.146l.388-.053L21.28,10h.951l.383.034.388.053q.349.058.684.146a7.363,7.363,0,0,1,1.509.582h0A8.057,8.057,0,0,1,28.075,16.994Z" transform="translate(-12.544 -9.029)" fill="#544f55"/>
          <path id="Path_6187-2" data-name="Path 6187" d="M26.673,20.941v.291l-.18,2.315a5.681,5.681,0,0,1-11.328,0L15,21.233v-.291h.282a3.514,3.514,0,0,0,1.844-.524A3.582,3.582,0,0,0,18.4,19a3.514,3.514,0,0,0,3.14,1.941Z" transform="translate(-13.057 -13.661)" fill="#f4d2b1" stroke="#414141" stroke-width="1"/>
          <path id="Path_6188-2" data-name="Path 6188" d="M25.456,38.969A5.757,5.757,0,0,1,24,38.78v1.563a1.456,1.456,0,0,0,2.912,0h0V38.78A5.757,5.757,0,0,1,25.456,38.969Z" transform="translate(-17.69 -23.841)" fill="#d8ac8b"/>
        </g>
      </g>
    </g>
  </g>
</svg>
