<svg xmlns="http://www.w3.org/2000/svg" width="158.681" height="42.76" viewBox="0 0 158.681 42.76">
  <g id="Group_7540" data-name="Group 7540" transform="translate(-51 -28)">
    <g id="OriginalElephantLogo" transform="translate(51.002 28.005)">
      <g id="Group_502" data-name="Group 502" transform="translate(94.575 34.599)">
        <path id="Path_1097" data-name="Path 1097" d="M847.636,313.771l-2.887-4.578v-.115h1.127l2.255,3.727h.046l2.243-3.727h1.1v.115l-2.875,4.578v3.359h-1.012v-3.359Z" transform="translate(-844.749 -309.078)" fill="#231f20"/>
        <path id="Path_1098" data-name="Path 1098" d="M904.238,330.617c0-1.691.84-3.048,2.657-3.048s2.657,1.357,2.657,3.048-.817,3.037-2.657,3.037S904.238,332.308,904.238,330.617Zm4.336,0c0-1.265-.483-2.186-1.679-2.186s-1.68.932-1.68,2.186.495,2.174,1.68,2.174S908.574,331.883,908.574,330.617Z" transform="translate(-897.578 -325.499)" fill="#231f20"/>
        <path id="Path_1099" data-name="Path 1099" d="M969.866,328.5v3.738a2.411,2.411,0,0,1-4.808,0V328.5h.966v3.577c0,.932.414,1.53,1.438,1.53s1.438-.6,1.438-1.53V328.5Z" transform="translate(-951.588 -326.322)" fill="#231f20"/>
        <path id="Path_1100" data-name="Path 1100" d="M1022.391,370.178a.679.679,0,1,1,1.358,0,.679.679,0,1,1-1.358,0Z" transform="translate(-1002.503 -362.725)" fill="#231f20"/>
        <path id="Path_1101" data-name="Path 1101" d="M1074.581,309.194v-.115h.978l1.542,6.487h.046l1.771-6.487h1.035l1.794,6.487h.046l1.53-6.487h.989v.115l-2,7.937H1081.3l-1.829-6.43h-.046l-1.863,6.43h-1Z" transform="translate(-1048.849 -309.079)" fill="#231f20"/>
        <path id="Path_1102" data-name="Path 1102" d="M1166.331,330.617c0-1.7.839-3.048,2.657-3.048,1.656,0,2.542,1.231,2.542,2.864v.472h-4.187c0,1.116.563,1.886,1.656,1.886a1.365,1.365,0,0,0,1.484-.943h.966a2.313,2.313,0,0,1-2.45,1.806C1167.263,333.654,1166.331,332.343,1166.331,330.617Zm4.2-.518a1.49,1.49,0,0,0-1.541-1.668,1.554,1.554,0,0,0-1.634,1.668Z" transform="translate(-1130.327 -325.499)" fill="#231f20"/>
        <path id="Path_1103" data-name="Path 1103" d="M1224.07,370.178a.679.679,0,1,1,1.358,0,.679.679,0,1,1-1.358,0Z" transform="translate(-1181.602 -362.725)" fill="#231f20"/>
        <path id="Path_1104" data-name="Path 1104" d="M1282.425,314.289v-5.211h1v5.187a2.065,2.065,0,0,0,4.13,0v-5.187h1.012v5.211a3.074,3.074,0,0,1-6.143,0Z" transform="translate(-1233.424 -309.078)" fill="#231f20"/>
        <path id="Path_1105" data-name="Path 1105" d="M1351.675,331.608h.966c0,.782.6,1.185,1.438,1.185s1.346-.276,1.346-.84c0-.391-.265-.7-.9-.84l-1.173-.219a1.63,1.63,0,0,1-1.5-1.645c0-.978.839-1.679,2.139-1.679,1.323,0,2.266.725,2.266,1.9h-.943c-.034-.748-.587-1.081-1.323-1.081-.713,0-1.208.287-1.208.863,0,.46.38.725,1.024.828l.92.173c1.1.253,1.668.69,1.668,1.7,0,1.081-1.058,1.7-2.324,1.7A2.133,2.133,0,0,1,1351.675,331.608Z" transform="translate(-1294.921 -325.501)" fill="#231f20"/>
        <path id="Path_1106" data-name="Path 1106" d="M1405.2,370.178a.679.679,0,1,1,1.357,0,.679.679,0,1,1-1.357,0Z" transform="translate(-1342.456 -362.725)" fill="#231f20"/>
      </g>
    </g>
    <g id="Group_501" data-name="Group 501" transform="translate(51 28)">
      <path id="Path_1094" data-name="Path 1094" d="M61.65,101.578a1.21,1.21,0,1,0,.134-2.414,1.21,1.21,0,0,0-.134,2.414" transform="translate(-53.739 -88.061)" fill="#1bb2dd"/>
      <g id="Group_500" data-name="Group 500">
        <path id="Path_1095" data-name="Path 1095" d="M0,12.707a7.121,7.121,0,0,0,1.3,4.066,4.975,4.975,0,0,0,3.529,1.969,11.279,11.279,0,0,0-1.4-1.013c-2.932-2.2-3.35-6.272-.806-9.508A5.884,5.884,0,0,1,7.24,6.27c4.453,0,8.109,5.23,12.337,5.23,3.858,0,4.735-5.531,1.505-7.54C19.427,2.932,17.757,3,17.163,2.114c1.687-.948,13.846,3.128,3.185,13.914-2.43,2.459-6.192,2.941-8.687,7.806a14.471,14.471,0,0,0-1.069,3.088H6.569c0-1.352-.78-3.352-2.012-3.352h-.67c-1.245,0-3.518,2.1.031,5.6,2.723,2.691,7.946,4.322,12.306,4.322,6.31,0,11.59-3.926,14.261-9.474a17.03,17.03,0,0,0-3.5-19.393L24.753,2.837c-6-3.968-14.162-3.849-19.619.793C2.482,5.886,0,8.792,0,12.707" transform="translate(0.002 0.005)" fill="#1bb2dd"/>
        <path id="Path_1096" data-name="Path 1096" d="M341.229,27.682a13.117,13.117,0,0,0-.7-4.551,9.186,9.186,0,0,0-1.82-3.1,6.8,6.8,0,0,0-2.5-1.751,7.49,7.49,0,0,0-2.749-.543,9.035,9.035,0,0,0-3.466.648,7.689,7.689,0,0,0-2.678,1.8,8.088,8.088,0,0,0-1.716,2.783,10.648,10.648,0,0,0,.035,7.213,8.494,8.494,0,0,0,1.821,2.871,8.278,8.278,0,0,0,2.836,1.891,9.632,9.632,0,0,0,3.694.684,9.5,9.5,0,0,0,3.763-.754,13.515,13.515,0,0,0,3.2-1.908l-2-3.5a10.183,10.183,0,0,1-2.241,1.54,5.386,5.386,0,0,1-2.381.525,5.741,5.741,0,0,1-1.821-.279,4.292,4.292,0,0,1-1.453-.805,3.672,3.672,0,0,1-.945-1.226,3.217,3.217,0,0,1-.3-1.54Zm-11.134-3.606a3.8,3.8,0,0,1,1.155-1.734,2.93,2.93,0,0,1,1.961-.682,2.5,2.5,0,0,1,1.873.735,3.717,3.717,0,0,1,.963,1.681ZM347.544,9.615l-4.587,1.435V30.483a4.351,4.351,0,0,0,.543,2.206,5.352,5.352,0,0,0,1.383,1.593,5.949,5.949,0,0,0,1.821.963,6.073,6.073,0,0,0,1.856.315A7.212,7.212,0,0,0,350,35.4a2.686,2.686,0,0,0,1.19-.508l.385-4.482a9.642,9.642,0,0,1-1.331.805,2.926,2.926,0,0,1-1.3.35,1.7,1.7,0,0,1-.945-.3q-.456-.3-.456-1.418V9.615Zm19.83,18.067H355.96a3.226,3.226,0,0,0,.3,1.54,3.684,3.684,0,0,0,.945,1.226,4.294,4.294,0,0,0,1.453.805,5.745,5.745,0,0,0,1.822.28,5.386,5.386,0,0,0,2.381-.525,10.2,10.2,0,0,0,2.241-1.54l2,3.5a13.533,13.533,0,0,1-3.2,1.908,9.512,9.512,0,0,1-3.764.754,9.645,9.645,0,0,1-3.694-.684,8.285,8.285,0,0,1-2.836-1.891,8.52,8.52,0,0,1-1.821-2.871,10.644,10.644,0,0,1-.035-7.213,8.121,8.121,0,0,1,1.716-2.783,7.686,7.686,0,0,1,2.678-1.8,9.038,9.038,0,0,1,3.467-.648,7.488,7.488,0,0,1,2.749.543,6.792,6.792,0,0,1,2.5,1.751,9.2,9.2,0,0,1,1.82,3.1,13.144,13.144,0,0,1,.7,4.551M356.24,24.076h5.952a3.705,3.705,0,0,0-.963-1.681,2.5,2.5,0,0,0-1.873-.735,2.931,2.931,0,0,0-1.961.682,3.8,3.8,0,0,0-1.156,1.734m12.3-7.178V42.843h4.551V35.35a11.657,11.657,0,0,0,1.418.263,12.084,12.084,0,0,0,1.453.087,8.584,8.584,0,0,0,3.466-.7,8.741,8.741,0,0,0,4.674-4.762,9.143,9.143,0,0,0,.682-3.537,9.3,9.3,0,0,0-.665-3.553,8.756,8.756,0,0,0-1.82-2.819,8.133,8.133,0,0,0-2.766-1.856,9.1,9.1,0,0,0-3.5-.665,15.481,15.481,0,0,0-2.293.175,11.686,11.686,0,0,0-2.083.49Zm4.552,5.427a9.428,9.428,0,0,1,1.278-.315,7.316,7.316,0,0,1,1.068-.07,4.574,4.574,0,0,1,1.855.368,4.405,4.405,0,0,1,1.453,1.015,4.694,4.694,0,0,1,.963,1.558,5.417,5.417,0,0,1,.35,1.961,4.624,4.624,0,0,1-1.278,3.4,4.536,4.536,0,0,1-3.379,1.295,5.635,5.635,0,0,1-1.137-.1,6.479,6.479,0,0,1-1.173-.385V22.324h0Zm17.869-13.13-4.551,1.89V35.28h4.551V22.745a9.048,9.048,0,0,1,1.436-.7,4.914,4.914,0,0,1,1.681-.245,2.262,2.262,0,0,1,2.031,1.015,5.076,5.076,0,0,1,.665,2.8V35.28h4.553V24.986a8.745,8.745,0,0,0-.526-3.151,6.308,6.308,0,0,0-1.453-2.275,5.956,5.956,0,0,0-2.206-1.365,8.224,8.224,0,0,0-2.783-.456,7.614,7.614,0,0,0-1.856.211q-.84.209-1.541.455V9.195ZM416.292,36.12V22.71a5.006,5.006,0,0,0-.578-2.539,4.622,4.622,0,0,0-1.452-1.576,5.665,5.665,0,0,0-1.873-.805,8.436,8.436,0,0,0-1.873-.227,19.056,19.056,0,0,0-3.589.367,11.77,11.77,0,0,0-3.869,1.558l1.855,3.676a8.251,8.251,0,0,1,2.573-1.313,8.8,8.8,0,0,1,2.5-.4,1.855,1.855,0,0,1,1.279.42,1.349,1.349,0,0,1,.473,1.05v.736a23.8,23.8,0,0,0-3.1.21,8.539,8.539,0,0,0-2.889.893,5.87,5.87,0,0,0-2.136,1.908,5.6,5.6,0,0,0-.84,3.221,4.865,4.865,0,0,0,.437,1.995,6.425,6.425,0,0,0,1.192,1.786,5.991,5.991,0,0,0,1.751,1.3,4.82,4.82,0,0,0,2.153.49q.56,0,1.225-.035t1.313-.105q.648-.07,1.208-.157c.373-.058.666-.111.876-.157Zm-4.551-4.9a3.234,3.234,0,0,1-.525.141q-.349.069-.753.122t-.84.087q-.437.035-.788.035a1.229,1.229,0,0,1-1-.507,1.888,1.888,0,0,1-.4-1.208,2.042,2.042,0,0,1,.369-1.261,2.345,2.345,0,0,1,.979-.753,4.9,4.9,0,0,1,1.383-.35,13.9,13.9,0,0,1,1.575-.088v3.782Zm10.237-12.57-3.116-1.681V35.28h4.552V22.36a7.564,7.564,0,0,1,3.327-.6,2.46,2.46,0,0,1,2.031.981,4.577,4.577,0,0,1,.77,2.871V35.28h4.552V25.021q0-3.711-1.943-5.514a7.289,7.289,0,0,0-5.164-1.8,14.087,14.087,0,0,0-2.7.245,15,15,0,0,0-2.311.63v.07h0Zm19.97-6.442L437.4,14.762v3.431h-2.8v3.781h2.8v9.138a4.371,4.371,0,0,0,.439,2.014,4.188,4.188,0,0,0,1.12,1.4,4.606,4.606,0,0,0,1.558.8,6.043,6.043,0,0,0,1.75.263,5.4,5.4,0,0,0,1.033-.122c.41-.082.841-.193,1.3-.333s.91-.3,1.365-.49.869-.373,1.243-.56l-1.751-3.571a15.971,15.971,0,0,1-1.47.716,3.406,3.406,0,0,1-1.331.264.558.558,0,0,1-.613-.508,11.393,11.393,0,0,1-.087-1.7V21.974h4.132V18.193h-4.132V12.205h0Z" transform="translate(-288.598 -8.165)" fill="#231f20"/>
      </g>
    </g>
  </g>
</svg>
