<svg xmlns="http://www.w3.org/2000/svg" width="41" height="17.494" viewBox="0 0 41 17.494">
  <g id="Group_7728" data-name="Group 7728" transform="translate(0.5 0.5)">
    <g id="Group_7686" data-name="Group 7686" transform="translate(0 0)">
      <g id="Cigar" transform="translate(0 0)">
        <g id="Group_7684" data-name="Group 7684" transform="translate(0 11.004)">
          <g id="Group_7683" data-name="Group 7683">
            <rect id="Rectangle_3724" data-name="Rectangle 3724" width="25.617" height="4.783" transform="translate(11.301 0.106)" fill="#e3e5e7" stroke="#707070" stroke-linecap="round" stroke-linejoin="round" stroke-width="1"/>
            <g id="Group_7682" data-name="Group 7682">
              <path id="Path_6189" data-name="Path 6189" d="M40.2,27.138c0-1.276.425-2.338.85-2.338H51.892v4.783H41.05C40.625,29.583,40.2,28.52,40.2,27.138Z" transform="translate(-40.2 -24.694)" fill="#fabb3a" stroke="#707070" stroke-linecap="round" stroke-linejoin="round" stroke-width="1"/>
              <g id="Group_7681" data-name="Group 7681" transform="translate(0.909)">
                <path id="Path_6190" data-name="Path 6190" d="M45.1,26.925h0a1.059,1.059,0,0,0,.106-.425,1.071,1.071,0,0,1,.106.319C45.313,27.138,45.1,26.819,45.1,26.925Z" transform="translate(-39.738 -24.587)" fill="#fde4b0" stroke="#707070" stroke-linecap="round" stroke-linejoin="round" stroke-width="1"/>
                <path id="Path_6191" data-name="Path 6191" d="M47.6,25.5Z" transform="translate(-44.683 -24.65)" fill="#fde4b0" stroke="#707070" stroke-linecap="round" stroke-width="1"/>
                <path id="Path_6192" data-name="Path 6192" d="M44.7,25.921h0v-.106c0-.106.106-.319.213-.213v.319c0,.106,0,.213-.106.213C44.7,26.239,44.7,26.133,44.7,25.921Z" transform="translate(-38.913 -24.645)" fill="#fde4b0" stroke="#707070" stroke-linecap="round" stroke-linejoin="round" stroke-width="1"/>
                <path id="Path_6193" data-name="Path 6193" d="M49.056,27.006V26.9s.106,0,0,.106Z" transform="translate(-47.733 -24.562)" fill="#fde4b0" stroke="#707070" stroke-linecap="round" stroke-width="1"/>
                <path id="Path_6194" data-name="Path 6194" d="M47.513,25.828s.106,0,.106-.213c.106-.106.106,0,.106.106v.319c-.106.106-.106.106-.213,0,.106-.213,0-.106,0-.213h0c-.106.213-.213,0-.213-.106,0,0,0,.106.106-.106v-.106c.106-.106.213-.213.213-.106v.319A.1.1,0,0,0,47.513,25.828Zm-.106-.213Z" transform="translate(-44.489 -24.659)" fill="#fde4b0" stroke="#707070" stroke-linecap="round" stroke-linejoin="round" stroke-width="1"/>
                <path id="Path_6195" data-name="Path 6195" d="M42.406,25.906,42.3,25.8h0Z" transform="translate(-33.856 -24.631)" fill="#fde4b0" stroke="#707070" stroke-linecap="round" stroke-linejoin="round" stroke-width="1"/>
                <path id="Path_6196" data-name="Path 6196" d="M47.106,25.4h0c-.106.213-.106.106-.106.106C47,25.4,47,25.3,47.106,25.4Z" transform="translate(-43.551 -24.659)" fill="#fde4b0" stroke="#707070" stroke-linecap="round" stroke-width="1"/>
                <path id="Path_6197" data-name="Path 6197" d="M43.806,26.8h0Z" transform="translate(-36.744 -24.568)" fill="#fde4b0" stroke="#707070" stroke-linecap="round" stroke-linejoin="round" stroke-width="1"/>
                <path id="Path_6198" data-name="Path 6198" d="M42.5,26.027h0V25.6h0v.425Z" transform="translate(-34.162 -24.645)" fill="#fde4b0" stroke="#707070" stroke-linecap="round" stroke-linejoin="round" stroke-width="1"/>
                <path id="Path_6199" data-name="Path 6199" d="M44.3,25.918c0-.213.106-.425.106-.213v.213C44.406,26.024,44.406,25.918,44.3,25.918Z" transform="translate(-37.981 -24.642)" fill="#fde4b0" stroke="#707070" stroke-linecap="round" stroke-linejoin="round" stroke-width="1"/>
                <path id="Path_6200" data-name="Path 6200" d="M45.1,26.409h0v0h0v0Z" transform="translate(-39.525 -24.602)" fill="#fde4b0" stroke="#707070" stroke-linecap="round" stroke-width="1"/>
                <path id="Path_6201" data-name="Path 6201" d="M47.9,25.9v0Z" transform="translate(-45.302 -24.624)" fill="#fde4b0" stroke="#707070" stroke-linecap="round" stroke-linejoin="round" stroke-width="1"/>
                <path id="Path_6202" data-name="Path 6202" d="M47.9,26.413h0c.106-.106.106-.213.213-.213v.213C48.006,26.625,48.006,26.413,47.9,26.413Z" transform="translate(-45.514 -24.606)" fill="#fde4b0" stroke="#707070" stroke-linecap="round" stroke-width="1"/>
                <path id="Path_6203" data-name="Path 6203" d="M47.6,26.519h0v-.106c.106-.106.106-.213.213-.213v.213c0,.106,0,.106-.106.213C47.706,26.838,47.6,26.731,47.6,26.519Zm.106,0Z" transform="translate(-44.895 -24.606)" fill="#fde4b0" stroke="#707070" stroke-linecap="round" stroke-width="1"/>
                <path id="Path_6204" data-name="Path 6204" d="M50.006,26.015h0c0-.106.106-.106.106-.213h0c.106-.106.106.106.106,0v.319c-.106.213-.213.106-.319.213,0-.106.106-.106.106-.319Z" transform="translate(-49.746 -24.634)" fill="#fde4b0" stroke="#707070" stroke-linecap="round" stroke-linejoin="round" stroke-width="1"/>
                <path id="Path_6205" data-name="Path 6205" d="M48.613,25.813c-.106.213-.213.213-.213,0l.106-.213C48.506,25.706,48.613,25.494,48.613,25.813Z" transform="translate(-46.546 -24.643)" fill="#fde4b0" stroke="#707070" stroke-linecap="round" stroke-linejoin="round" stroke-width="1"/>
                <path id="Path_6206" data-name="Path 6206" d="M47.8,26.4Z" transform="translate(-45.095 -24.596)" fill="#fde4b0" stroke="#707070" stroke-linecap="round" stroke-width="1"/>
                <path id="Path_6207" data-name="Path 6207" d="M43.006,26.614c-.106.213-.106.106-.106.106.106-.213.106-.425.213-.319Z" transform="translate(-35.2 -24.595)" fill="#fde4b0" stroke="#707070" stroke-linecap="round" stroke-width="1"/>
                <path id="Path_6208" data-name="Path 6208" d="M48.1,26.106v0Z" transform="translate(-45.714 -24.618)" fill="#fde4b0" stroke="#707070" stroke-linecap="round" stroke-linejoin="round" stroke-width="1"/>
                <path id="Path_6209" data-name="Path 6209" d="M45.506,26.313c-.106.213-.106.106,0,0-.106.106-.106,0,0,0h0L45.4,26.1h0C45.506,26.206,45.506,26.206,45.506,26.313Z" transform="translate(-40.251 -24.612)" fill="#fde4b0" stroke="#707070" stroke-linecap="round" stroke-linejoin="round" stroke-width="1"/>
                <path id="Path_6210" data-name="Path 6210" d="M43.506,26.314c0,.213-.106.106-.106.106,0-.213.106-.425.106-.319Z" transform="translate(-36.125 -24.614)" fill="#fde4b0" stroke="#707070" stroke-linecap="round" stroke-linejoin="round" stroke-width="1"/>
                <path id="Path_6211" data-name="Path 6211" d="M44.6,26.2Z" transform="translate(-38.494 -24.606)" fill="#fde4b0" stroke="#707070" stroke-linecap="round" stroke-linejoin="round" stroke-width="1"/>
                <path id="Path_6212" data-name="Path 6212" d="M48,26.906h0v0Z" transform="translate(-45.508 -24.568)" fill="#fde4b0" stroke="#707070" stroke-linecap="round" stroke-linejoin="round" stroke-width="1"/>
                <path id="Path_6213" data-name="Path 6213" d="M48.1,24.9Z" transform="translate(-45.714 -24.687)" fill="#fde4b0" stroke="#707070" stroke-linecap="round" stroke-width="1"/>
                <path id="Path_6214" data-name="Path 6214" d="M44.1,24.8h.213v.106c0-.319-.106.213-.106,0A.1.1,0,0,1,44.1,24.8Z" transform="translate(-37.675 -24.694)" fill="#fde4b0" stroke="#707070" stroke-linecap="round" stroke-linejoin="round" stroke-width="1"/>
                <path id="Path_6215" data-name="Path 6215" d="M48.113,24.8v.319c-.106.106-.106,0-.213-.106v-.106h0C48.006,24.906,48.006,24.8,48.113,24.8Zm-.106.213Z" transform="translate(-45.514 -24.694)" fill="#fde4b0" stroke="#707070" stroke-linecap="round" stroke-width="1"/>
                <path id="Path_6216" data-name="Path 6216" d="M41.7,25.5Z" transform="translate(-32.511 -24.65)" fill="#fde4b0" stroke="#707070" stroke-linecap="round" stroke-width="1"/>
                <path id="Path_6217" data-name="Path 6217" d="M41.506,25.114h0V24.9c-.106,0-.106,0,0,.213h0c-.106.106-.106-.106-.106-.106s0-.213.106-.106Z" transform="translate(-31.999 -24.689)" fill="#fde4b0" stroke="#707070" stroke-linecap="round" stroke-linejoin="round" stroke-width="1"/>
                <path id="Path_6218" data-name="Path 6218" d="M44.4,24.9Z" transform="translate(-38.081 -24.69)" fill="#fde4b0" stroke="#707070" stroke-linecap="round" stroke-width="1"/>
                <path id="Path_6219" data-name="Path 6219" d="M41.706,25.431v-.106h0v-.213h0v-.106h0V24.9h.106v1.063s-.106.213-.106,0a.1.1,0,0,0-.106-.106h0c.106-.319.106-.319.106-.425Z" transform="translate(-32.518 -24.687)" fill="#fde4b0" stroke="#707070" stroke-linecap="round" stroke-linejoin="round" stroke-width="1"/>
                <path id="Path_6220" data-name="Path 6220" d="M41.606,28.7v.213c-.106.106-.106,0-.106-.106h.106V28.7h0c-.106-.106-.106,0,0,0v0Z" transform="translate(-32.205 -24.451)" fill="#fde4b0" stroke="#707070" stroke-linecap="round" stroke-linejoin="round" stroke-width="1"/>
                <path id="Path_6221" data-name="Path 6221" d="M47.919,25.013c0,.106-.106.213-.213,0,0-.213,0-.106-.106-.213h.213A.329.329,0,0,1,47.919,25.013Z" transform="translate(-45.002 -24.694)" fill="#fde4b0" stroke="#707070" stroke-linecap="round" stroke-linejoin="round" stroke-width="1"/>
                <path id="Path_6222" data-name="Path 6222" d="M50.3,25.4h0c.106.213,0,.213,0,.213h0V25.4Z" transform="translate(-50.256 -24.659)" fill="#fde4b0" stroke="#707070" stroke-linecap="round" stroke-linejoin="round" stroke-width="1"/>
                <path id="Path_6223" data-name="Path 6223" d="M49.1,26.613c0-.106,0-.213.106-.213,0,.106,0,.106-.106.213Z" transform="translate(-47.884 -24.593)" fill="#fde4b0" stroke="#707070" stroke-linecap="round" stroke-width="1"/>
                <path id="Path_6224" data-name="Path 6224" d="M40.406,28v.213c0,.106-.106,0-.106,0h.106V28h0v0Z" transform="translate(-29.73 -24.492)" fill="#fde4b0" stroke="#707070" stroke-linecap="round" stroke-linejoin="round" stroke-width="1"/>
                <path id="Path_6225" data-name="Path 6225" d="M44.356,29.038h0v-.106h0v-.106c.106-.106.106-.425.213-.425a.1.1,0,0,0,.106.106h0a.513.513,0,0,1,0,.425C44.462,29.463,44.462,28.931,44.356,29.038Z" transform="translate(-38.356 -24.467)" fill="#fde4b0" stroke="#707070" stroke-linecap="round" stroke-linejoin="round" stroke-width="1"/>
                <path id="Path_6226" data-name="Path 6226" d="M48.2,25.4v0Z" transform="translate(-45.921 -24.656)" fill="#fde4b0" stroke="#707070" stroke-linecap="round" stroke-linejoin="round" stroke-width="1"/>
                <path id="Path_6227" data-name="Path 6227" d="M48.113,25.3v.425c0,.213-.106.106-.213-.106v-.106h0C48.006,25.406,48.006,25.3,48.113,25.3Zm-.106.319Z" transform="translate(-45.514 -24.662)" fill="#fde4b0" stroke="#707070" stroke-linecap="round" stroke-width="1"/>
                <path id="Path_6228" data-name="Path 6228" d="M48,25.5Z" transform="translate(-45.508 -24.65)" fill="#fde4b0" stroke="#707070" stroke-linecap="round" stroke-width="1"/>
                <path id="Path_6229" data-name="Path 6229" d="M49.58,26.2h0v.106C49.473,26.306,49.473,26.306,49.58,26.2Z" transform="translate(-48.682 -24.606)" fill="#fde4b0" stroke="#707070" stroke-linecap="round" stroke-width="1"/>
                <path id="Path_6230" data-name="Path 6230" d="M42.306,26.363h0V26.15h0a.958.958,0,0,0-.106-.531v0h0V25.3c0,.106,0,.213.106.106l.106.106v.85a.329.329,0,0,1-.106.213C42.413,26.576,42.413,26.576,42.306,26.363Z" transform="translate(-33.756 -24.662)" fill="#fde4b0" stroke="#707070" stroke-linecap="round" stroke-linejoin="round" stroke-width="1"/>
                <path id="Path_6231" data-name="Path 6231" d="M48.492,26.419h0v.213c0,.319-.106.213-.213.106v-.213c-.106,0-.106-.106-.106-.213l.106-.213C48.385,26.206,48.6,25.994,48.492,26.419Z" transform="translate(-46.212 -24.612)" fill="#fde4b0" stroke="#707070" stroke-linecap="round" stroke-linejoin="round" stroke-width="1"/>
                <path id="Path_6232" data-name="Path 6232" d="M41.7,26.213h0v-.106h0V26h0v.213l.106-.106V26l-.106.213Z" transform="translate(-32.618 -24.618)" fill="#fde4b0" stroke="#707070" stroke-linecap="round" stroke-linejoin="round" stroke-width="1"/>
                <path id="Path_6233" data-name="Path 6233" d="M42.2,25v0Z" transform="translate(-33.543 -24.681)" fill="#fde4b0" stroke="#707070" stroke-linecap="round" stroke-linejoin="round" stroke-width="1"/>
                <path id="Path_6234" data-name="Path 6234" d="M41.9,25.013h0V24.8h.106v.213c0,.319-.106.106-.106.106Z" transform="translate(-33.03 -24.694)" fill="#fde4b0" stroke="#707070" stroke-linecap="round" stroke-linejoin="round" stroke-width="1"/>
                <path id="Path_6235" data-name="Path 6235" d="M47,25.125c.106-.213,0-.106,0-.213s.106,0,.106-.213h.106v.106a.39.39,0,0,1-.106.319C47.106,25.338,47,25.338,47,25.125Z" transform="translate(-43.658 -24.7)" fill="#fde4b0" stroke="#707070" stroke-linecap="round" stroke-linejoin="round" stroke-width="1"/>
                <path id="Path_6236" data-name="Path 6236" d="M44.6,25h0v0Z" transform="translate(-38.494 -24.681)" fill="#fde4b0" stroke="#707070" stroke-linecap="round" stroke-linejoin="round" stroke-width="1"/>
                <path id="Path_6237" data-name="Path 6237" d="M43.1,24.8Z" transform="translate(-35.4 -24.694)" fill="#fde4b0" stroke="#707070" stroke-linecap="round" stroke-width="1"/>
                <path id="Path_6238" data-name="Path 6238" d="M47.3,25.6Z" transform="translate(-44.064 -24.643)" fill="#fde4b0" stroke="#707070" stroke-linecap="round" stroke-linejoin="round" stroke-width="1"/>
                <path id="Path_6239" data-name="Path 6239" d="M42.3,28.1Z" transform="translate(-33.749 -24.486)" fill="#fde4b0" stroke="#707070" stroke-linecap="round" stroke-width="1"/>
                <path id="Path_6240" data-name="Path 6240" d="M42.3,28Z" transform="translate(-33.749 -24.492)" fill="#fde4b0" stroke="#707070" stroke-linecap="round" stroke-width="1"/>
                <path id="Path_6241" data-name="Path 6241" d="M42.3,27.9Z" transform="translate(-33.749 -24.499)" fill="#fde4b0" stroke="#707070" stroke-linecap="round" stroke-width="1"/>
                <path id="Path_6242" data-name="Path 6242" d="M42.4,28Z" transform="translate(-33.956 -24.495)" fill="#fde4b0" stroke="#707070" stroke-linecap="round" stroke-linejoin="round" stroke-width="1"/>
                <path id="Path_6243" data-name="Path 6243" d="M42.2,28.12h0v-.106h0v-.106c0-.106.106-.213.106,0C42.2,27.907,42.2,28.014,42.2,28.12Z" transform="translate(-33.649 -24.506)" fill="#fde4b0" stroke="#707070" stroke-linecap="round" stroke-linejoin="round" stroke-width="1"/>
                <path id="Path_6244" data-name="Path 6244" d="M40.931,27.714h0v0h0V27.5l-.106.106v0s.106-.213.106-.106C41.038,27.5,41.038,27.5,40.931,27.714Z" transform="translate(-30.892 -24.526)" fill="#fde4b0" stroke="#707070" stroke-linecap="round" stroke-linejoin="round" stroke-width="1"/>
                <path id="Path_6245" data-name="Path 6245" d="M43.9,28.546c0-.106-.106,0,0-.213v-.106h0v-.319h0V27.8c0,.106,0-.106.106,0,.106-.106,0,.213,0,.319v.319C43.9,28.546,43.9,28.652,43.9,28.546Z" transform="translate(-37.159 -24.507)" fill="#fde4b0" stroke="#707070" stroke-linecap="round" stroke-linejoin="round" stroke-width="1"/>
                <path id="Path_6246" data-name="Path 6246" d="M46.5,27.5Z" transform="translate(-42.414 -24.524)" fill="#fde4b0" stroke="#707070" stroke-linecap="round" stroke-linejoin="round" stroke-width="1"/>
                <path id="Path_6247" data-name="Path 6247" d="M48.413,27.316c-.106.319-.213.213-.213,0l.106-.213S48.413,26.891,48.413,27.316Z" transform="translate(-46.133 -24.552)" fill="#fde4b0" stroke="#707070" stroke-linecap="round" stroke-linejoin="round" stroke-width="1"/>
                <path id="Path_6248" data-name="Path 6248" d="M41.638,27.525c-.106.319-.106.106-.213.106v-.319h0l.106-.213h.106C41.744,27.206,41.744,27.313,41.638,27.525Z" transform="translate(-32.236 -24.549)" fill="#fde4b0" stroke="#707070" stroke-linecap="round" stroke-linejoin="round" stroke-width="1"/>
                <path id="Path_6249" data-name="Path 6249" d="M45.613,27.6v.425c-.106.425-.106-.106-.213,0v-.106S45.506,27.6,45.613,27.6Z" transform="translate(-40.357 -24.517)" fill="#fde4b0" stroke="#707070" stroke-linecap="round" stroke-linejoin="round" stroke-width="1"/>
                <path id="Path_6250" data-name="Path 6250" d="M42.9,27.3v.106h0V27.3Z" transform="translate(-34.987 -24.536)" fill="#fde4b0" stroke="#707070" stroke-linecap="round" stroke-linejoin="round" stroke-width="1"/>
                <path id="Path_6251" data-name="Path 6251" d="M49.106,27c0,.213,0,.106-.106.106L49.106,27Z" transform="translate(-47.677 -24.557)" fill="#fde4b0" stroke="#707070" stroke-linecap="round" stroke-width="1"/>
                <path id="Path_6252" data-name="Path 6252" d="M47.78,29.3Z" transform="translate(-44.969 -24.415)" fill="#fde4b0" stroke="#707070" stroke-linecap="round" stroke-width="1"/>
                <path id="Path_6253" data-name="Path 6253" d="M49.3,29.229c.106.106.106-.319.106-.213V28.8h0c.106,0,.213-.213.213.106,0,.213-.106.213-.106.319h-.106C49.406,29.336,49.3,29.229,49.3,29.229Z" transform="translate(-48.509 -24.446)" fill="#fde4b0" stroke="#707070" stroke-linecap="round" stroke-linejoin="round" stroke-width="1"/>
                <path id="Path_6254" data-name="Path 6254" d="M50.025,29.206V29.1c.106,0,.106,0,0,.106Z" transform="translate(-49.765 -24.423)" fill="#fde4b0" stroke="#707070" stroke-linecap="round" stroke-width="1"/>
                <path id="Path_6255" data-name="Path 6255" d="M49.78,28.8Z" transform="translate(-49.095 -24.442)" fill="#fde4b0" stroke="#707070" stroke-linecap="round" stroke-width="1"/>
                <path id="Path_6256" data-name="Path 6256" d="M50,28.806h0v0Z" transform="translate(-49.634 -24.448)" fill="#fde4b0" stroke="#707070" stroke-linecap="round" stroke-width="1"/>
                <path id="Path_6257" data-name="Path 6257" d="M49.706,24.8h0c-.106.213-.106.106-.106,0h.106Z" transform="translate(-48.915 -24.694)" fill="#fde4b0" stroke="#707070" stroke-linecap="round" stroke-linejoin="round" stroke-width="1"/>
                <path id="Path_6258" data-name="Path 6258" d="M40.2,26.731h0v-.213c0-.106.106-.213.213-.319v.85a1.071,1.071,0,0,1-.106.319C40.2,27.369,40.2,27.157,40.2,26.731Z" transform="translate(-29.63 -24.606)" fill="#fde4b0" stroke="#707070" stroke-linecap="round" stroke-linejoin="round" stroke-width="1"/>
                <path id="Path_6259" data-name="Path 6259" d="M44.5,29.3Z" transform="translate(-38.288 -24.41)" fill="#fde4b0" stroke="#707070" stroke-linecap="round" stroke-width="1"/>
                <path id="Path_6260" data-name="Path 6260" d="M46.1,28.1Z" transform="translate(-41.588 -24.489)" fill="#fde4b0" stroke="#707070" stroke-linecap="round" stroke-linejoin="round" stroke-width="1"/>
                <path id="Path_6261" data-name="Path 6261" d="M50.2,28.506V28.4l.106.106Z" transform="translate(-50.153 -24.467)" fill="#fde4b0" stroke="#707070" stroke-linecap="round" stroke-linejoin="round" stroke-width="1"/>
                <path id="Path_6262" data-name="Path 6262" d="M46.9,28.8v0Z" transform="translate(-43.239 -24.442)" fill="#fde4b0" stroke="#707070" stroke-linecap="round" stroke-width="1"/>
                <path id="Path_6263" data-name="Path 6263" d="M48.5,29.2h0l.106.106L48.5,29.2Z" transform="translate(-46.646 -24.42)" fill="#fde4b0" stroke="#707070" stroke-linecap="round" stroke-width="1"/>
                <path id="Path_6264" data-name="Path 6264" d="M48.706,29.148c0-.106,0-.213-.106-.213v-.106c.106-.213.213-.213.319-.319V28.4c.106-.213.106.213.213,0v.106l.106.213v.319a.1.1,0,0,1-.106.106c-.106.213-.213.213-.213.319H48.6C48.6,29.254,48.6,29.254,48.706,29.148Z" transform="translate(-47.384 -24.471)" fill="#fde4b0" stroke="#707070" stroke-linecap="round" stroke-linejoin="round" stroke-width="1"/>
                <path id="Path_6265" data-name="Path 6265" d="M48.4,29.2Z" transform="translate(-46.333 -24.417)" fill="#fde4b0" stroke="#707070" stroke-linecap="round" stroke-width="1"/>
                <path id="Path_6266" data-name="Path 6266" d="M40.4,27.025v-.213h0V26.6h.106a1.071,1.071,0,0,1,.106.319C40.506,27.131,40.4,27.025,40.4,27.025Z" transform="translate(-30.042 -24.58)" fill="#fde4b0" stroke="#707070" stroke-linecap="round" stroke-linejoin="round" stroke-width="1"/>
                <path id="Path_6267" data-name="Path 6267" d="M48.213,28.706v.638H48c0-.213,0-.319.106-.425v-.106c0-.213.106.106.106-.213Z" transform="translate(-45.721 -24.455)" fill="#fde4b0" stroke="#707070" stroke-linecap="round" stroke-linejoin="round" stroke-width="1"/>
                <path id="Path_6268" data-name="Path 6268" d="M48.613,27.606c.106-.213.106.106.213-.106a.1.1,0,0,0,.106.106v.319c-.106.531-.213.425-.425.531v-.213c0-.106,0-.106-.106-.106v-.106c.213-.213.213-.319.213-.425C48.719,27.606,48.719,27.5,48.613,27.606Z" transform="translate(-46.865 -24.524)" fill="#fde4b0" stroke="#707070" stroke-linecap="round" stroke-linejoin="round" stroke-width="1"/>
                <path id="Path_6269" data-name="Path 6269" d="M49.6,27.906v0Z" transform="translate(-48.809 -24.505)" fill="#fde4b0" stroke="#707070" stroke-linecap="round" stroke-linejoin="round" stroke-width="1"/>
                <path id="Path_6270" data-name="Path 6270" d="M47.5,29Z" transform="translate(-44.477 -24.429)" fill="#fde4b0" stroke="#707070" stroke-linecap="round" stroke-width="1"/>
                <path id="Path_6271" data-name="Path 6271" d="M46.08,28v.106h0c-.106,0,0,0,0-.106Z" transform="translate(-41.462 -24.495)" fill="#fde4b0" stroke="#707070" stroke-linecap="round" stroke-linejoin="round" stroke-width="1"/>
                <path id="Path_6272" data-name="Path 6272" d="M43.4,27Z" transform="translate(-36.018 -24.555)" fill="#fde4b0" stroke="#707070" stroke-linecap="round" stroke-linejoin="round" stroke-width="1"/>
                <path id="Path_6273" data-name="Path 6273" d="M47.5,29.206h0c.106-.106.106,0,0,0l.106-.106h0v.106C47.606,29.313,47.5,29.206,47.5,29.206Z" transform="translate(-44.583 -24.423)" fill="#fde4b0" stroke="#707070" stroke-linecap="round" stroke-linejoin="round" stroke-width="1"/>
                <path id="Path_6274" data-name="Path 6274" d="M45.425,27.106h0V27h0v.106Z" transform="translate(-40.276 -24.555)" fill="#fde4b0" stroke="#707070" stroke-linecap="round" stroke-linejoin="round" stroke-width="1"/>
                <path id="Path_6275" data-name="Path 6275" d="M50.131,27.916c0,.213-.106.213-.213.319s-.213,0-.319-.106c0,.106.106-.319.213-.213V27.7h0C49.919,27.7,50.131,27.491,50.131,27.916Z" transform="translate(-49.34 -24.514)" fill="#fde4b0" stroke="#707070" stroke-linecap="round" stroke-linejoin="round" stroke-width="1"/>
                <path id="Path_6276" data-name="Path 6276" d="M49.519,27.31c0,.213,0,.213-.106.319s-.213.106-.213,0c.106.106,0-.213.106-.213V27.2h0C49.413,27.2,49.519,26.992,49.519,27.31Z" transform="translate(-48.302 -24.547)" fill="#fde4b0" stroke="#707070" stroke-linecap="round" stroke-linejoin="round" stroke-width="1"/>
                <path id="Path_6277" data-name="Path 6277" d="M49.3,27.8v0Z" transform="translate(-48.19 -24.505)" fill="#fde4b0" stroke="#707070" stroke-linecap="round" stroke-width="1"/>
                <path id="Path_6278" data-name="Path 6278" d="M47.5,29Z" transform="translate(-44.477 -24.429)" fill="#fde4b0" stroke="#707070" stroke-linecap="round" stroke-linejoin="round" stroke-width="1"/>
                <path id="Path_6279" data-name="Path 6279" d="M46.1,28.1Z" transform="translate(-41.588 -24.486)" fill="#fde4b0" stroke="#707070" stroke-linecap="round" stroke-width="1"/>
                <path id="Path_6280" data-name="Path 6280" d="M46.1,28.1Z" transform="translate(-41.588 -24.486)" fill="#fde4b0" stroke="#707070" stroke-linecap="round" stroke-width="1"/>
                <path id="Path_6281" data-name="Path 6281" d="M47.556,27.9h0c.106.106,0,.106,0,.213Z" transform="translate(-44.638 -24.503)" fill="#fde4b0" stroke="#707070" stroke-linecap="round" stroke-width="1"/>
                <path id="Path_6282" data-name="Path 6282" d="M46.1,28Z" transform="translate(-41.588 -24.492)" fill="#fde4b0" stroke="#707070" stroke-linecap="round" stroke-width="1"/>
                <path id="Path_6283" data-name="Path 6283" d="M46.1,28.1Z" transform="translate(-41.588 -24.486)" fill="#fde4b0" stroke="#707070" stroke-linecap="round" stroke-linejoin="round" stroke-width="1"/>
                <path id="Path_6284" data-name="Path 6284" d="M46.1,28.1Z" transform="translate(-41.588 -24.486)" fill="#fde4b0" stroke="#707070" stroke-linecap="round" stroke-width="1"/>
                <path id="Path_6285" data-name="Path 6285" d="M47.48,28.9v.213c-.106.106-.106-.106,0-.213Z" transform="translate(-44.35 -24.44)" fill="#fde4b0" stroke="#707070" stroke-linecap="round" stroke-width="1"/>
                <path id="Path_6286" data-name="Path 6286" d="M46.406,28.606c0,.319,0,.106-.106.213,0-.106,0-.106.106-.213C46.3,28.393,46.3,28.606,46.406,28.606Z" transform="translate(-42.107 -24.46)" fill="#fde4b0" stroke="#707070" stroke-linecap="round" stroke-width="1"/>
                <path id="Path_6287" data-name="Path 6287" d="M47.58,29.1Z" transform="translate(-44.556 -24.423)" fill="#fde4b0" stroke="#707070" stroke-linecap="round" stroke-linejoin="round" stroke-width="1"/>
                <path id="Path_6288" data-name="Path 6288" d="M46.847,28.114v.106c0-.106-.106-.425,0-.319Z" transform="translate(-43.08 -24.5)" fill="#fde4b0" stroke="#707070" stroke-linecap="round" stroke-width="1"/>
                <path id="Path_6289" data-name="Path 6289" d="M46.456,28.4h0c0,.106.106.213,0,.213Z" transform="translate(-42.369 -24.47)" fill="#fde4b0" stroke="#707070" stroke-linecap="round" stroke-width="1"/>
                <path id="Path_6290" data-name="Path 6290" d="M48,28.417s0-.213.106-.213h0c-.106,0-.106,0-.106.213v-.106h0V28.2h0v.213Z" transform="translate(-45.614 -24.484)" fill="#fde4b0" stroke="#707070" stroke-linecap="round" stroke-linejoin="round" stroke-width="1"/>
              </g>
            </g>
          </g>
          <path id="Path_6291" data-name="Path 6291" d="M16.1,27.138c0-1.276.425-2.338.85-2.338h.319v4.783H16.95C16.419,29.583,16.1,28.52,16.1,27.138Z" transform="translate(19.648 -24.694)" fill="#39393a" stroke="#707070" stroke-linecap="round" stroke-linejoin="round" stroke-width="1"/>
          <path id="Path_6292" data-name="Path 6292" d="M16.15,29.577c-.425,0-.85-1.063-.85-2.338s.425-2.338.85-2.338.85,1.063.85,2.338S16.576,29.577,16.15,29.577Z" transform="translate(20.767 -24.687)" fill="#d64121" stroke="#707070" stroke-linecap="round" stroke-linejoin="round" stroke-width="1"/>
        </g>
        <g id="Group_7685" data-name="Group 7685" transform="translate(34.154)">
          <path id="Path_6293" data-name="Path 6293" d="M15.25,16.22c0-.106.106-.319.106-.425s.106-.213.106-.319c0-.213.106-.319.106-.425a1.467,1.467,0,0,1,.319-.425c.106-.106.213-.213.213-.319l.106-.106v.106a.39.39,0,0,1-.106.319,4.6,4.6,0,0,0-.106.531v.638a2.075,2.075,0,0,0,.106.744,2.7,2.7,0,0,0,.213.744,4.621,4.621,0,0,1,.425.744c.213.213.425.531.638.744a5.9,5.9,0,0,1,.638.85,4.309,4.309,0,0,1,.531.957l.319.957a1.475,1.475,0,0,1,0,.957.639.639,0,0,1-.106.425c0,.106-.106.213-.106.319-.106.213-.106.425-.213.531s-.106.213-.213.319a.1.1,0,0,1-.106.106V22.916a.39.39,0,0,0-.106-.319,6.774,6.774,0,0,1-.213-.744,6.1,6.1,0,0,0-.425-.744c-.106-.213-.319-.425-.531-.744-.213-.213-.425-.531-.638-.744a5.9,5.9,0,0,1-.638-.85c-.213-.319-.319-.638-.531-.957a3.777,3.777,0,0,1-.213-1.063C15.144,16.538,15.144,16.326,15.25,16.22Z" transform="translate(-14.825 -14.2)" fill="#b8bdc3" stroke="#707070" stroke-linecap="round" stroke-linejoin="round" stroke-width="1"/>
          <path id="Path_6294" data-name="Path 6294" d="M14.794,24.009c0-.106.106-.213.106-.425a1.8,1.8,0,0,1,.213-.531c0-.106.106-.213.106-.319v-.213a.39.39,0,0,1,.106-.319V20.608l-.106-.319c0-.106-.106-.213-.106-.319s-.106-.213-.106-.319-.106-.213-.106-.319c-.106-.106-.106-.213-.213-.319s-.106-.213-.213-.319c-.106-.213-.213-.319-.319-.531,0-.106-.106-.106-.213-.213s-.106-.106-.106-.213l-.319-.319c-.106-.106-.106-.213-.213-.213A.1.1,0,0,0,13.2,17.1h.106c.106,0,.106,0,.319.106.106,0,.213.106.425.213.106.106.319.106.531.319a1.061,1.061,0,0,1,.531.425c.106.106.213.213.319.213l.319.319c.106.106.213.213.213.319s.106.106.106.213.106.106.106.213c.106.106.106.319.213.425,0,.106.106.319.106.425a.639.639,0,0,0,.106.425v.425a.639.639,0,0,1-.106.425.639.639,0,0,1-.106.425c0,.106-.106.319-.106.425-.106.106-.106.213-.213.319-.106.213-.319.425-.425.638s-.319.319-.425.425l-.319.319c-.106.106-.213.106-.213.213a.1.1,0,0,0-.106.106v-.106C14.794,24.222,14.794,24.115,14.794,24.009Z" transform="translate(-10.755 -14.017)" fill="#b8bdc3" stroke="#707070" stroke-linecap="round" stroke-linejoin="round" stroke-width="1"/>
        </g>
      </g>
    </g>
    <g id="Group_7687" data-name="Group 7687" transform="translate(0 0)">
      <g id="Cigar-2" data-name="Cigar" transform="translate(0 0)">
        <g id="Group_7684-2" data-name="Group 7684" transform="translate(0 11.004)">
          <g id="Group_7683-2" data-name="Group 7683">
            <rect id="Rectangle_3724-2" data-name="Rectangle 3724" width="25.617" height="4.783" transform="translate(11.301 0.106)" fill="#e3e5e7"/>
            <g id="Group_7682-2" data-name="Group 7682">
              <path id="Path_6189-2" data-name="Path 6189" d="M40.2,27.138c0-1.276.425-2.338.85-2.338H51.892v4.783H41.05C40.625,29.583,40.2,28.52,40.2,27.138Z" transform="translate(-40.2 -24.694)" fill="#fabb3a"/>
              <g id="Group_7681-2" data-name="Group 7681" transform="translate(0.909)">
                <path id="Path_6190-2" data-name="Path 6190" d="M45.1,26.925h0a1.059,1.059,0,0,0,.106-.425,1.071,1.071,0,0,1,.106.319C45.313,27.138,45.1,26.819,45.1,26.925Z" transform="translate(-39.738 -24.587)" fill="#fde4b0"/>
                <path id="Path_6191-2" data-name="Path 6191" d="M47.6,25.5Z" transform="translate(-44.683 -24.65)" fill="#fde4b0"/>
                <path id="Path_6192-2" data-name="Path 6192" d="M44.7,25.921h0v-.106c0-.106.106-.319.213-.213v.319c0,.106,0,.213-.106.213C44.7,26.239,44.7,26.133,44.7,25.921Z" transform="translate(-38.913 -24.645)" fill="#fde4b0"/>
                <path id="Path_6193-2" data-name="Path 6193" d="M49.056,27.006V26.9s.106,0,0,.106Z" transform="translate(-47.733 -24.562)" fill="#fde4b0"/>
                <path id="Path_6194-2" data-name="Path 6194" d="M47.513,25.828s.106,0,.106-.213c.106-.106.106,0,.106.106v.319c-.106.106-.106.106-.213,0,.106-.213,0-.106,0-.213h0c-.106.213-.213,0-.213-.106,0,0,0,.106.106-.106v-.106c.106-.106.213-.213.213-.106v.319A.1.1,0,0,0,47.513,25.828Zm-.106-.213Z" transform="translate(-44.489 -24.659)" fill="#fde4b0"/>
                <path id="Path_6195-2" data-name="Path 6195" d="M42.406,25.906,42.3,25.8h0Z" transform="translate(-33.856 -24.631)" fill="#fde4b0"/>
                <path id="Path_6196-2" data-name="Path 6196" d="M47.106,25.4h0c-.106.213-.106.106-.106.106C47,25.4,47,25.3,47.106,25.4Z" transform="translate(-43.551 -24.659)" fill="#fde4b0"/>
                <path id="Path_6197-2" data-name="Path 6197" d="M43.806,26.8h0Z" transform="translate(-36.744 -24.568)" fill="#fde4b0"/>
                <path id="Path_6198-2" data-name="Path 6198" d="M42.5,26.027h0V25.6h0v.425Z" transform="translate(-34.162 -24.645)" fill="#fde4b0"/>
                <path id="Path_6199-2" data-name="Path 6199" d="M44.3,25.918c0-.213.106-.425.106-.213v.213C44.406,26.024,44.406,25.918,44.3,25.918Z" transform="translate(-37.981 -24.642)" fill="#fde4b0"/>
                <path id="Path_6200-2" data-name="Path 6200" d="M45.1,26.409h0v0h0v0Z" transform="translate(-39.525 -24.602)" fill="#fde4b0"/>
                <path id="Path_6201-2" data-name="Path 6201" d="M47.9,25.9v0Z" transform="translate(-45.302 -24.624)" fill="#fde4b0"/>
                <path id="Path_6202-2" data-name="Path 6202" d="M47.9,26.413h0c.106-.106.106-.213.213-.213v.213C48.006,26.625,48.006,26.413,47.9,26.413Z" transform="translate(-45.514 -24.606)" fill="#fde4b0"/>
                <path id="Path_6203-2" data-name="Path 6203" d="M47.6,26.519h0v-.106c.106-.106.106-.213.213-.213v.213c0,.106,0,.106-.106.213C47.706,26.838,47.6,26.731,47.6,26.519Zm.106,0Z" transform="translate(-44.895 -24.606)" fill="#fde4b0"/>
                <path id="Path_6204-2" data-name="Path 6204" d="M50.006,26.015h0c0-.106.106-.106.106-.213h0c.106-.106.106.106.106,0v.319c-.106.213-.213.106-.319.213,0-.106.106-.106.106-.319Z" transform="translate(-49.746 -24.634)" fill="#fde4b0"/>
                <path id="Path_6205-2" data-name="Path 6205" d="M48.613,25.813c-.106.213-.213.213-.213,0l.106-.213C48.506,25.706,48.613,25.494,48.613,25.813Z" transform="translate(-46.546 -24.643)" fill="#fde4b0"/>
                <path id="Path_6206-2" data-name="Path 6206" d="M47.8,26.4Z" transform="translate(-45.095 -24.596)" fill="#fde4b0"/>
                <path id="Path_6207-2" data-name="Path 6207" d="M43.006,26.614c-.106.213-.106.106-.106.106.106-.213.106-.425.213-.319Z" transform="translate(-35.2 -24.595)" fill="#fde4b0"/>
                <path id="Path_6208-2" data-name="Path 6208" d="M48.1,26.106v0Z" transform="translate(-45.714 -24.618)" fill="#fde4b0"/>
                <path id="Path_6209-2" data-name="Path 6209" d="M45.506,26.313c-.106.213-.106.106,0,0-.106.106-.106,0,0,0h0L45.4,26.1h0C45.506,26.206,45.506,26.206,45.506,26.313Z" transform="translate(-40.251 -24.612)" fill="#fde4b0"/>
                <path id="Path_6210-2" data-name="Path 6210" d="M43.506,26.314c0,.213-.106.106-.106.106,0-.213.106-.425.106-.319Z" transform="translate(-36.125 -24.614)" fill="#fde4b0"/>
                <path id="Path_6211-2" data-name="Path 6211" d="M44.6,26.2Z" transform="translate(-38.494 -24.606)" fill="#fde4b0"/>
                <path id="Path_6212-2" data-name="Path 6212" d="M48,26.906h0v0Z" transform="translate(-45.508 -24.568)" fill="#fde4b0"/>
                <path id="Path_6213-2" data-name="Path 6213" d="M48.1,24.9Z" transform="translate(-45.714 -24.687)" fill="#fde4b0"/>
                <path id="Path_6214-2" data-name="Path 6214" d="M44.1,24.8h.213v.106c0-.319-.106.213-.106,0A.1.1,0,0,1,44.1,24.8Z" transform="translate(-37.675 -24.694)" fill="#fde4b0"/>
                <path id="Path_6215-2" data-name="Path 6215" d="M48.113,24.8v.319c-.106.106-.106,0-.213-.106v-.106h0C48.006,24.906,48.006,24.8,48.113,24.8Zm-.106.213Z" transform="translate(-45.514 -24.694)" fill="#fde4b0"/>
                <path id="Path_6216-2" data-name="Path 6216" d="M41.7,25.5Z" transform="translate(-32.511 -24.65)" fill="#fde4b0"/>
                <path id="Path_6217-2" data-name="Path 6217" d="M41.506,25.114h0V24.9c-.106,0-.106,0,0,.213h0c-.106.106-.106-.106-.106-.106s0-.213.106-.106Z" transform="translate(-31.999 -24.689)" fill="#fde4b0"/>
                <path id="Path_6218-2" data-name="Path 6218" d="M44.4,24.9Z" transform="translate(-38.081 -24.69)" fill="#fde4b0"/>
                <path id="Path_6219-2" data-name="Path 6219" d="M41.706,25.431v-.106h0v-.213h0v-.106h0V24.9h.106v1.063s-.106.213-.106,0a.1.1,0,0,0-.106-.106h0c.106-.319.106-.319.106-.425Z" transform="translate(-32.518 -24.687)" fill="#fde4b0"/>
                <path id="Path_6220-2" data-name="Path 6220" d="M41.606,28.7v.213c-.106.106-.106,0-.106-.106h.106V28.7h0c-.106-.106-.106,0,0,0v0Z" transform="translate(-32.205 -24.451)" fill="#fde4b0"/>
                <path id="Path_6221-2" data-name="Path 6221" d="M47.919,25.013c0,.106-.106.213-.213,0,0-.213,0-.106-.106-.213h.213A.329.329,0,0,1,47.919,25.013Z" transform="translate(-45.002 -24.694)" fill="#fde4b0"/>
                <path id="Path_6222-2" data-name="Path 6222" d="M50.3,25.4h0c.106.213,0,.213,0,.213h0V25.4Z" transform="translate(-50.256 -24.659)" fill="#fde4b0"/>
                <path id="Path_6223-2" data-name="Path 6223" d="M49.1,26.613c0-.106,0-.213.106-.213,0,.106,0,.106-.106.213Z" transform="translate(-47.884 -24.593)" fill="#fde4b0"/>
                <path id="Path_6224-2" data-name="Path 6224" d="M40.406,28v.213c0,.106-.106,0-.106,0h.106V28h0v0Z" transform="translate(-29.73 -24.492)" fill="#fde4b0"/>
                <path id="Path_6225-2" data-name="Path 6225" d="M44.356,29.038h0v-.106h0v-.106c.106-.106.106-.425.213-.425a.1.1,0,0,0,.106.106h0a.513.513,0,0,1,0,.425C44.462,29.463,44.462,28.931,44.356,29.038Z" transform="translate(-38.356 -24.467)" fill="#fde4b0"/>
                <path id="Path_6226-2" data-name="Path 6226" d="M48.2,25.4v0Z" transform="translate(-45.921 -24.656)" fill="#fde4b0"/>
                <path id="Path_6227-2" data-name="Path 6227" d="M48.113,25.3v.425c0,.213-.106.106-.213-.106v-.106h0C48.006,25.406,48.006,25.3,48.113,25.3Zm-.106.319Z" transform="translate(-45.514 -24.662)" fill="#fde4b0"/>
                <path id="Path_6228-2" data-name="Path 6228" d="M48,25.5Z" transform="translate(-45.508 -24.65)" fill="#fde4b0"/>
                <path id="Path_6229-2" data-name="Path 6229" d="M49.58,26.2h0v.106C49.473,26.306,49.473,26.306,49.58,26.2Z" transform="translate(-48.682 -24.606)" fill="#fde4b0"/>
                <path id="Path_6230-2" data-name="Path 6230" d="M42.306,26.363h0V26.15h0a.958.958,0,0,0-.106-.531v0h0V25.3c0,.106,0,.213.106.106l.106.106v.85a.329.329,0,0,1-.106.213C42.413,26.576,42.413,26.576,42.306,26.363Z" transform="translate(-33.756 -24.662)" fill="#fde4b0"/>
                <path id="Path_6231-2" data-name="Path 6231" d="M48.492,26.419h0v.213c0,.319-.106.213-.213.106v-.213c-.106,0-.106-.106-.106-.213l.106-.213C48.385,26.206,48.6,25.994,48.492,26.419Z" transform="translate(-46.212 -24.612)" fill="#fde4b0"/>
                <path id="Path_6232-2" data-name="Path 6232" d="M41.7,26.213h0v-.106h0V26h0v.213l.106-.106V26l-.106.213Z" transform="translate(-32.618 -24.618)" fill="#fde4b0"/>
                <path id="Path_6233-2" data-name="Path 6233" d="M42.2,25v0Z" transform="translate(-33.543 -24.681)" fill="#fde4b0"/>
                <path id="Path_6234-2" data-name="Path 6234" d="M41.9,25.013h0V24.8h.106v.213c0,.319-.106.106-.106.106Z" transform="translate(-33.03 -24.694)" fill="#fde4b0"/>
                <path id="Path_6235-2" data-name="Path 6235" d="M47,25.125c.106-.213,0-.106,0-.213s.106,0,.106-.213h.106v.106a.39.39,0,0,1-.106.319C47.106,25.338,47,25.338,47,25.125Z" transform="translate(-43.658 -24.7)" fill="#fde4b0"/>
                <path id="Path_6236-2" data-name="Path 6236" d="M44.6,25h0v0Z" transform="translate(-38.494 -24.681)" fill="#fde4b0"/>
                <path id="Path_6237-2" data-name="Path 6237" d="M43.1,24.8Z" transform="translate(-35.4 -24.694)" fill="#fde4b0"/>
                <path id="Path_6238-2" data-name="Path 6238" d="M47.3,25.6Z" transform="translate(-44.064 -24.643)" fill="#fde4b0"/>
                <path id="Path_6239-2" data-name="Path 6239" d="M42.3,28.1Z" transform="translate(-33.749 -24.486)" fill="#fde4b0"/>
                <path id="Path_6240-2" data-name="Path 6240" d="M42.3,28Z" transform="translate(-33.749 -24.492)" fill="#fde4b0"/>
                <path id="Path_6241-2" data-name="Path 6241" d="M42.3,27.9Z" transform="translate(-33.749 -24.499)" fill="#fde4b0"/>
                <path id="Path_6242-2" data-name="Path 6242" d="M42.4,28Z" transform="translate(-33.956 -24.495)" fill="#fde4b0"/>
                <path id="Path_6243-2" data-name="Path 6243" d="M42.2,28.12h0v-.106h0v-.106c0-.106.106-.213.106,0C42.2,27.907,42.2,28.014,42.2,28.12Z" transform="translate(-33.649 -24.506)" fill="#fde4b0"/>
                <path id="Path_6244-2" data-name="Path 6244" d="M40.931,27.714h0v0h0V27.5l-.106.106v0s.106-.213.106-.106C41.038,27.5,41.038,27.5,40.931,27.714Z" transform="translate(-30.892 -24.526)" fill="#fde4b0"/>
                <path id="Path_6245-2" data-name="Path 6245" d="M43.9,28.546c0-.106-.106,0,0-.213v-.106h0v-.319h0V27.8c0,.106,0-.106.106,0,.106-.106,0,.213,0,.319v.319C43.9,28.546,43.9,28.652,43.9,28.546Z" transform="translate(-37.159 -24.507)" fill="#fde4b0"/>
                <path id="Path_6246-2" data-name="Path 6246" d="M46.5,27.5Z" transform="translate(-42.414 -24.524)" fill="#fde4b0"/>
                <path id="Path_6247-2" data-name="Path 6247" d="M48.413,27.316c-.106.319-.213.213-.213,0l.106-.213S48.413,26.891,48.413,27.316Z" transform="translate(-46.133 -24.552)" fill="#fde4b0"/>
                <path id="Path_6248-2" data-name="Path 6248" d="M41.638,27.525c-.106.319-.106.106-.213.106v-.319h0l.106-.213h.106C41.744,27.206,41.744,27.313,41.638,27.525Z" transform="translate(-32.236 -24.549)" fill="#fde4b0"/>
                <path id="Path_6249-2" data-name="Path 6249" d="M45.613,27.6v.425c-.106.425-.106-.106-.213,0v-.106S45.506,27.6,45.613,27.6Z" transform="translate(-40.357 -24.517)" fill="#fde4b0"/>
                <path id="Path_6250-2" data-name="Path 6250" d="M42.9,27.3v.106h0V27.3Z" transform="translate(-34.987 -24.536)" fill="#fde4b0"/>
                <path id="Path_6251-2" data-name="Path 6251" d="M49.106,27c0,.213,0,.106-.106.106L49.106,27Z" transform="translate(-47.677 -24.557)" fill="#fde4b0"/>
                <path id="Path_6252-2" data-name="Path 6252" d="M47.78,29.3Z" transform="translate(-44.969 -24.415)" fill="#fde4b0"/>
                <path id="Path_6253-2" data-name="Path 6253" d="M49.3,29.229c.106.106.106-.319.106-.213V28.8h0c.106,0,.213-.213.213.106,0,.213-.106.213-.106.319h-.106C49.406,29.336,49.3,29.229,49.3,29.229Z" transform="translate(-48.509 -24.446)" fill="#fde4b0"/>
                <path id="Path_6254-2" data-name="Path 6254" d="M50.025,29.206V29.1c.106,0,.106,0,0,.106Z" transform="translate(-49.765 -24.423)" fill="#fde4b0"/>
                <path id="Path_6255-2" data-name="Path 6255" d="M49.78,28.8Z" transform="translate(-49.095 -24.442)" fill="#fde4b0"/>
                <path id="Path_6256-2" data-name="Path 6256" d="M50,28.806h0v0Z" transform="translate(-49.634 -24.448)" fill="#fde4b0"/>
                <path id="Path_6257-2" data-name="Path 6257" d="M49.706,24.8h0c-.106.213-.106.106-.106,0h.106Z" transform="translate(-48.915 -24.694)" fill="#fde4b0"/>
                <path id="Path_6258-2" data-name="Path 6258" d="M40.2,26.731h0v-.213c0-.106.106-.213.213-.319v.85a1.071,1.071,0,0,1-.106.319C40.2,27.369,40.2,27.157,40.2,26.731Z" transform="translate(-29.63 -24.606)" fill="#fde4b0"/>
                <path id="Path_6259-2" data-name="Path 6259" d="M44.5,29.3Z" transform="translate(-38.288 -24.41)" fill="#fde4b0"/>
                <path id="Path_6260-2" data-name="Path 6260" d="M46.1,28.1Z" transform="translate(-41.588 -24.489)" fill="#fde4b0"/>
                <path id="Path_6261-2" data-name="Path 6261" d="M50.2,28.506V28.4l.106.106Z" transform="translate(-50.153 -24.467)" fill="#fde4b0"/>
                <path id="Path_6262-2" data-name="Path 6262" d="M46.9,28.8v0Z" transform="translate(-43.239 -24.442)" fill="#fde4b0"/>
                <path id="Path_6263-2" data-name="Path 6263" d="M48.5,29.2h0l.106.106L48.5,29.2Z" transform="translate(-46.646 -24.42)" fill="#fde4b0"/>
                <path id="Path_6264-2" data-name="Path 6264" d="M48.706,29.148c0-.106,0-.213-.106-.213v-.106c.106-.213.213-.213.319-.319V28.4c.106-.213.106.213.213,0v.106l.106.213v.319a.1.1,0,0,1-.106.106c-.106.213-.213.213-.213.319H48.6C48.6,29.254,48.6,29.254,48.706,29.148Z" transform="translate(-47.384 -24.471)" fill="#fde4b0"/>
                <path id="Path_6265-2" data-name="Path 6265" d="M48.4,29.2Z" transform="translate(-46.333 -24.417)" fill="#fde4b0"/>
                <path id="Path_6266-2" data-name="Path 6266" d="M40.4,27.025v-.213h0V26.6h.106a1.071,1.071,0,0,1,.106.319C40.506,27.131,40.4,27.025,40.4,27.025Z" transform="translate(-30.042 -24.58)" fill="#fde4b0"/>
                <path id="Path_6267-2" data-name="Path 6267" d="M48.213,28.706v.638H48c0-.213,0-.319.106-.425v-.106c0-.213.106.106.106-.213Z" transform="translate(-45.721 -24.455)" fill="#fde4b0"/>
                <path id="Path_6268-2" data-name="Path 6268" d="M48.613,27.606c.106-.213.106.106.213-.106a.1.1,0,0,0,.106.106v.319c-.106.531-.213.425-.425.531v-.213c0-.106,0-.106-.106-.106v-.106c.213-.213.213-.319.213-.425C48.719,27.606,48.719,27.5,48.613,27.606Z" transform="translate(-46.865 -24.524)" fill="#fde4b0"/>
                <path id="Path_6269-2" data-name="Path 6269" d="M49.6,27.906v0Z" transform="translate(-48.809 -24.505)" fill="#fde4b0"/>
                <path id="Path_6270-2" data-name="Path 6270" d="M47.5,29Z" transform="translate(-44.477 -24.429)" fill="#fde4b0"/>
                <path id="Path_6271-2" data-name="Path 6271" d="M46.08,28v.106h0c-.106,0,0,0,0-.106Z" transform="translate(-41.462 -24.495)" fill="#fde4b0"/>
                <path id="Path_6272-2" data-name="Path 6272" d="M43.4,27Z" transform="translate(-36.018 -24.555)" fill="#fde4b0"/>
                <path id="Path_6273-2" data-name="Path 6273" d="M47.5,29.206h0c.106-.106.106,0,0,0l.106-.106h0v.106C47.606,29.313,47.5,29.206,47.5,29.206Z" transform="translate(-44.583 -24.423)" fill="#fde4b0"/>
                <path id="Path_6274-2" data-name="Path 6274" d="M45.425,27.106h0V27h0v.106Z" transform="translate(-40.276 -24.555)" fill="#fde4b0"/>
                <path id="Path_6275-2" data-name="Path 6275" d="M50.131,27.916c0,.213-.106.213-.213.319s-.213,0-.319-.106c0,.106.106-.319.213-.213V27.7h0C49.919,27.7,50.131,27.491,50.131,27.916Z" transform="translate(-49.34 -24.514)" fill="#fde4b0"/>
                <path id="Path_6276-2" data-name="Path 6276" d="M49.519,27.31c0,.213,0,.213-.106.319s-.213.106-.213,0c.106.106,0-.213.106-.213V27.2h0C49.413,27.2,49.519,26.992,49.519,27.31Z" transform="translate(-48.302 -24.547)" fill="#fde4b0"/>
                <path id="Path_6277-2" data-name="Path 6277" d="M49.3,27.8v0Z" transform="translate(-48.19 -24.505)" fill="#fde4b0"/>
                <path id="Path_6278-2" data-name="Path 6278" d="M47.5,29Z" transform="translate(-44.477 -24.429)" fill="#fde4b0"/>
                <path id="Path_6279-2" data-name="Path 6279" d="M46.1,28.1Z" transform="translate(-41.588 -24.486)" fill="#fde4b0"/>
                <path id="Path_6280-2" data-name="Path 6280" d="M46.1,28.1Z" transform="translate(-41.588 -24.486)" fill="#fde4b0"/>
                <path id="Path_6281-2" data-name="Path 6281" d="M47.556,27.9h0c.106.106,0,.106,0,.213Z" transform="translate(-44.638 -24.503)" fill="#fde4b0"/>
                <path id="Path_6282-2" data-name="Path 6282" d="M46.1,28Z" transform="translate(-41.588 -24.492)" fill="#fde4b0"/>
                <path id="Path_6283-2" data-name="Path 6283" d="M46.1,28.1Z" transform="translate(-41.588 -24.486)" fill="#fde4b0"/>
                <path id="Path_6284-2" data-name="Path 6284" d="M46.1,28.1Z" transform="translate(-41.588 -24.486)" fill="#fde4b0"/>
                <path id="Path_6285-2" data-name="Path 6285" d="M47.48,28.9v.213c-.106.106-.106-.106,0-.213Z" transform="translate(-44.35 -24.44)" fill="#fde4b0"/>
                <path id="Path_6286-2" data-name="Path 6286" d="M46.406,28.606c0,.319,0,.106-.106.213,0-.106,0-.106.106-.213C46.3,28.393,46.3,28.606,46.406,28.606Z" transform="translate(-42.107 -24.46)" fill="#fde4b0"/>
                <path id="Path_6287-2" data-name="Path 6287" d="M47.58,29.1Z" transform="translate(-44.556 -24.423)" fill="#fde4b0"/>
                <path id="Path_6288-2" data-name="Path 6288" d="M46.847,28.114v.106c0-.106-.106-.425,0-.319Z" transform="translate(-43.08 -24.5)" fill="#fde4b0"/>
                <path id="Path_6289-2" data-name="Path 6289" d="M46.456,28.4h0c0,.106.106.213,0,.213Z" transform="translate(-42.369 -24.47)" fill="#fde4b0"/>
                <path id="Path_6290-2" data-name="Path 6290" d="M48,28.417s0-.213.106-.213h0c-.106,0-.106,0-.106.213v-.106h0V28.2h0v.213Z" transform="translate(-45.614 -24.484)" fill="#fde4b0"/>
              </g>
            </g>
          </g>
          <path id="Path_6291-2" data-name="Path 6291" d="M16.1,27.138c0-1.276.425-2.338.85-2.338h.319v4.783H16.95C16.419,29.583,16.1,28.52,16.1,27.138Z" transform="translate(19.648 -24.694)" fill="#39393a"/>
          <path id="Path_6292-2" data-name="Path 6292" d="M16.15,29.577c-.425,0-.85-1.063-.85-2.338s.425-2.338.85-2.338.85,1.063.85,2.338S16.576,29.577,16.15,29.577Z" transform="translate(20.767 -24.687)" fill="#d64121"/>
        </g>
        <g id="Group_7685-2" data-name="Group 7685" transform="translate(34.154)">
          <path id="Path_6293-2" data-name="Path 6293" d="M15.25,16.22c0-.106.106-.319.106-.425s.106-.213.106-.319c0-.213.106-.319.106-.425a1.467,1.467,0,0,1,.319-.425c.106-.106.213-.213.213-.319l.106-.106v.106a.39.39,0,0,1-.106.319,4.6,4.6,0,0,0-.106.531v.638a2.075,2.075,0,0,0,.106.744,2.7,2.7,0,0,0,.213.744,4.621,4.621,0,0,1,.425.744c.213.213.425.531.638.744a5.9,5.9,0,0,1,.638.85,4.309,4.309,0,0,1,.531.957l.319.957a1.475,1.475,0,0,1,0,.957.639.639,0,0,1-.106.425c0,.106-.106.213-.106.319-.106.213-.106.425-.213.531s-.106.213-.213.319a.1.1,0,0,1-.106.106V22.916a.39.39,0,0,0-.106-.319,6.774,6.774,0,0,1-.213-.744,6.1,6.1,0,0,0-.425-.744c-.106-.213-.319-.425-.531-.744-.213-.213-.425-.531-.638-.744a5.9,5.9,0,0,1-.638-.85c-.213-.319-.319-.638-.531-.957a3.777,3.777,0,0,1-.213-1.063C15.144,16.538,15.144,16.326,15.25,16.22Z" transform="translate(-14.825 -14.2)" fill="#b8bdc3"/>
          <path id="Path_6294-2" data-name="Path 6294" d="M14.794,24.009c0-.106.106-.213.106-.425a1.8,1.8,0,0,1,.213-.531c0-.106.106-.213.106-.319v-.213a.39.39,0,0,1,.106-.319V20.608l-.106-.319c0-.106-.106-.213-.106-.319s-.106-.213-.106-.319-.106-.213-.106-.319c-.106-.106-.106-.213-.213-.319s-.106-.213-.213-.319c-.106-.213-.213-.319-.319-.531,0-.106-.106-.106-.213-.213s-.106-.106-.106-.213l-.319-.319c-.106-.106-.106-.213-.213-.213A.1.1,0,0,0,13.2,17.1h.106c.106,0,.106,0,.319.106.106,0,.213.106.425.213.106.106.319.106.531.319a1.061,1.061,0,0,1,.531.425c.106.106.213.213.319.213l.319.319c.106.106.213.213.213.319s.106.106.106.213.106.106.106.213c.106.106.106.319.213.425,0,.106.106.319.106.425a.639.639,0,0,0,.106.425v.425a.639.639,0,0,1-.106.425.639.639,0,0,1-.106.425c0,.106-.106.319-.106.425-.106.106-.106.213-.213.319-.106.213-.319.425-.425.638s-.319.319-.425.425l-.319.319c-.106.106-.213.106-.213.213a.1.1,0,0,0-.106.106v-.106C14.794,24.222,14.794,24.115,14.794,24.009Z" transform="translate(-10.755 -14.017)" fill="#b8bdc3"/>
        </g>
      </g>
      <g id="Path_6295" data-name="Path 6295" transform="translate(13.663 4.477)" fill="#e01c1c">
        <path d="M 1.495072484016418 9.844508171081543 L 1.318292498588562 9.66773796081543 L -0.1771675050258636 8.172408103942871 L -0.3539575040340424 7.995638370513916 L -0.1771775037050247 7.818848133087158 L 2.896151304244995 4.745538234710693 L -0.1771775037050247 1.672228097915649 L -0.3539474904537201 1.495448112487793 L -0.1771775037050247 1.318668127059937 L 1.31828248500824 -0.1767818480730057 L 1.495062470436096 -0.3535618484020233 L 1.671842455863953 -0.1767718493938446 L 4.745068550109863 2.896539211273193 L 7.818512439727783 -0.1767818480730057 L 7.995282649993896 -0.353551834821701 L 8.172062873840332 -0.1767818480730057 L 9.667522430419922 1.318668127059937 L 9.844302177429199 1.495448112487793 L 9.667512893676758 1.672228097915649 L 6.594069957733154 4.745538234710693 L 9.667512893676758 7.818848133087158 L 9.844302177429199 7.995628356933594 L 9.667512893676758 8.172408103942871 L 8.172052383422852 9.66773796081543 L 7.995282649993896 9.844497680664062 L 7.818512439727783 9.66773796081543 L 4.745068550109863 6.594417095184326 L 1.671842455863953 9.667728424072266 L 1.495072484016418 9.844508171081543 Z" stroke="none"/>
        <path d="M 1.495062351226807 -1.9073486328125e-06 L -0.0003976821899414062 1.495448112487793 L 3.249712467193604 4.745538234710693 L -0.0003976821899414062 7.995617866516113 L 1.495062351226807 9.490958213806152 L 4.745062351226807 6.240868091583252 L 7.995282649993896 9.490958213806152 L 9.490742683410645 7.995617866516113 L 6.240512847900391 4.745538234710693 L 9.490742683410645 1.495448112487793 L 7.995282649993896 -1.9073486328125e-06 L 4.745062351226807 3.250088214874268 L 1.495062351226807 -1.9073486328125e-06 M 1.495072364807129 -0.7071123123168945 L 4.745074272155762 2.542980194091797 L 7.995292663574219 -0.7071018218994141 L 10.19786262512207 1.495458126068115 L 6.947638511657715 4.745537757873535 L 10.19787216186523 7.995628356933594 L 7.995272636413574 10.19804859161377 L 4.745074272155762 6.947976112365723 L 1.495082378387451 10.19805812835693 L -0.7075176239013672 7.995628356933594 L 2.542604923248291 4.745532512664795 L -0.7075071334838867 1.495448112487793 L 1.495072364807129 -0.7071123123168945 Z" stroke="none" fill="#414141"/>
      </g>
    </g>
  </g>
</svg>
