<svg xmlns="http://www.w3.org/2000/svg" xmlns:xlink="http://www.w3.org/1999/xlink" width="15.652" height="15.652" viewBox="0 0 15.652 15.652">
  <defs>
    <linearGradient id="linear-gradient" x1="0.504" y1="6.968" x2="0.504" y2="6.951" gradientUnits="objectBoundingBox">
      <stop offset="0" stop-color="#62fa7f"/>
      <stop offset="0.686" stop-color="#22cc40"/>
      <stop offset="1" stop-color="#05b723"/>
    </linearGradient>
  </defs>
  <g id="whatsapp.bb60d416" transform="translate(-5.7 -5)">
    <g id="Group_7693" data-name="Group 7693" transform="translate(5.7 5)">
      <path id="Path_6296" data-name="Path 6296" d="M9.679,5H9.258a6.8,6.8,0,0,0-1,.088,3.8,3.8,0,0,0-.859.28,3,3,0,0,0-.771.561,3.113,3.113,0,0,0-.561.771,3.167,3.167,0,0,0-.28.841c-.035.21-.07.666-.088,1.017v8.536a6.8,6.8,0,0,0,.088,1,3.8,3.8,0,0,0,.28.859,3,3,0,0,0,.561.771,3.113,3.113,0,0,0,.771.561,3.167,3.167,0,0,0,.841.28c.21.035.666.07,1.017.088h8.536a6.8,6.8,0,0,0,1-.088,3.8,3.8,0,0,0,.859-.28,3,3,0,0,0,.771-.561,3.113,3.113,0,0,0,.561-.771,3.167,3.167,0,0,0,.28-.841c.035-.21.07-.666.088-1.017V8.558a6.8,6.8,0,0,0-.088-1,3.8,3.8,0,0,0-.28-.859,3,3,0,0,0-.561-.771,3.113,3.113,0,0,0-.771-.561,3.167,3.167,0,0,0-.841-.28c-.21-.035-.666-.07-1.017-.088Z" transform="translate(-5.7 -5)" fill="url(#linear-gradient)"/>
      <path id="Path_6297" data-name="Path 6297" d="M27.508,23.473c-.14-.07-.841-.4-.964-.456s-.228-.07-.316.07-.368.456-.438.543a.214.214,0,0,1-.3.035,3.872,3.872,0,0,1-1.139-.684,4.334,4.334,0,0,1-.789-.964c-.088-.14,0-.21.07-.28a3.052,3.052,0,0,0,.21-.245,1.6,1.6,0,0,0,.14-.228.244.244,0,0,0-.018-.245c-.035-.07-.316-.754-.438-1.034-.123-.263-.228-.228-.316-.245h-.263a.5.5,0,0,0-.368.175,1.571,1.571,0,0,0-.491,1.157,2.733,2.733,0,0,0,.578,1.437,6.31,6.31,0,0,0,2.4,2.086c.333.14.6.228.806.3a2,2,0,0,0,.894.053,1.429,1.429,0,0,0,.947-.649,1.084,1.084,0,0,0,.088-.649,1.108,1.108,0,0,0-.3-.175m-2.682,3.611a4.662,4.662,0,0,1-2.366-.649l-.175-.105-1.753.456.473-1.7L20.9,24.91A4.629,4.629,0,0,1,28.1,19.2a4.574,4.574,0,0,1,1.35,3.26,4.646,4.646,0,0,1-4.627,4.627M28.77,18.53a5.577,5.577,0,0,0-9.518,3.926,5.64,5.64,0,0,0,.736,2.769L19.2,28.1l2.945-.771a5.566,5.566,0,0,0,8.238-4.873A5.443,5.443,0,0,0,28.77,18.53" transform="translate(-16.834 -14.814)" fill="#fff"/>
    </g>
  </g>
</svg>
